<?xml version="1.0" standalone="no"?>
<!DOCTYPE svg PUBLIC "-//W3C//DTD SVG 20010904//EN"
 "http://www.w3.org/TR/2001/REC-SVG-20010904/DTD/svg10.dtd">
<svg version="1.0" xmlns="http://www.w3.org/2000/svg"
 width="640.000000pt" height="1280.000000pt" viewBox="0 0 640.000000 1280.000000"
 preserveAspectRatio="xMidYMid meet">
<g transform="translate(0.000000,1280.000000) scale(0.100000,-0.100000)"
fill="#000000" stroke="none">
<path d="M3464 12759 c-8 -17 -18 -57 -21 -88 -5 -50 -68 -261 -106 -351 -8
-19 -18 -82 -22 -140 -10 -156 -19 -189 -64 -230 -25 -23 -45 -56 -59 -95 -12
-33 -33 -81 -47 -106 -18 -34 -25 -62 -25 -102 0 -43 -7 -68 -35 -121 -45 -87
-45 -104 1 -328 19 -93 17 -206 -6 -343 -11 -64 -20 -131 -20 -149 0 -46 -21
-71 -52 -63 -36 9 -40 29 -21 104 14 56 14 73 4 112 -7 25 -15 83 -18 129 -7
93 -19 110 -68 92 -35 -13 -41 -13 -59 6 -10 9 -16 33 -16 57 0 32 -8 54 -35
91 -32 46 -35 55 -35 123 0 87 -12 115 -70 162 -24 19 -50 52 -61 78 l-19 45
-63 -6 c-72 -8 -90 3 -102 64 -11 57 -38 103 -72 125 -23 14 -36 32 -43 60
-33 122 -56 160 -109 181 -41 16 -42 18 -96 137 -11 24 -33 47 -60 63 -33 19
-48 37 -69 83 -14 32 -26 65 -26 74 0 21 -48 77 -66 77 -8 0 -32 9 -54 20 -42
21 -75 26 -84 11 -6 -8 90 -61 111 -61 24 0 61 -42 68 -77 9 -50 62 -153 79
-153 27 0 68 -44 92 -98 30 -68 47 -88 96 -113 50 -26 68 -55 78 -131 6 -41
15 -66 26 -73 54 -32 74 -59 94 -126 25 -81 48 -102 112 -99 65 4 66 3 88 -42
11 -24 36 -54 56 -68 53 -38 67 -71 59 -143 -7 -60 -6 -64 34 -123 33 -49 41
-71 41 -106 0 -62 23 -83 85 -74 43 7 46 6 55 -20 6 -16 8 -50 5 -79 -5 -37
-2 -62 10 -91 15 -37 15 -45 -1 -127 -12 -57 -14 -91 -8 -97 5 -5 32 -14 58
-19 27 -5 53 -15 58 -22 5 -8 6 -41 3 -74 -4 -33 -7 -70 -7 -81 0 -28 48 -150
74 -186 10 -15 23 -50 27 -78 5 -33 17 -61 33 -78 50 -53 59 -105 37 -201 -8
-36 -6 -60 13 -133 16 -65 19 -94 12 -106 -18 -29 -76 -52 -132 -52 -37 0 -62
-6 -81 -19 -47 -34 -56 -14 -30 69 22 73 23 143 3 277 -6 40 -5 43 30 64 40
23 49 45 14 34 -75 -23 -75 -23 -99 55 -19 64 -21 86 -15 199 3 69 8 141 12
159 5 25 3 32 -9 32 -23 0 -30 -51 -31 -210 -1 -127 1 -141 31 -230 75 -220
68 -329 -40 -620 -33 -90 -36 -95 -66 -98 -32 -3 -39 6 -20 25 13 13 1 98 -30
223 -30 117 -51 200 -68 265 -9 33 -29 77 -45 97 -24 31 -28 44 -23 71 4 19 0
57 -9 88 -8 30 -18 83 -22 119 -3 36 -12 92 -20 125 -19 84 -17 119 12 209 23
74 33 187 34 387 0 9 13 33 30 54 33 42 30 68 -4 36 -40 -38 -50 -28 -95 92
-46 125 -50 162 -21 226 38 83 19 107 -22 28 -15 -30 -22 -60 -22 -107 0 -57
7 -79 50 -175 l49 -110 -1 -170 c0 -178 -11 -241 -55 -328 -27 -52 -44 -43
-46 25 -1 31 -8 67 -17 80 -8 12 -37 82 -64 154 -28 72 -60 150 -72 174 -12
24 -43 95 -68 159 l-46 116 3 130 c1 85 -4 169 -15 243 l-18 112 33 46 c38 55
29 80 -13 34 -21 -24 -30 -29 -41 -20 -32 26 -85 203 -85 282 0 36 -4 48 -15
48 -12 0 -15 -13 -15 -56 0 -73 23 -161 65 -249 41 -85 72 -251 77 -410 3 -94
1 -110 -13 -113 -12 -2 -23 14 -39 55 -13 32 -53 123 -91 203 -77 166 -187
474 -200 564 -5 34 -14 97 -20 141 -11 77 -23 110 -38 100 -4 -2 3 -74 15
-160 19 -128 34 -187 83 -330 33 -95 80 -214 105 -264 25 -50 46 -95 46 -101
0 -20 -27 -10 -56 21 -16 17 -66 60 -112 96 -69 55 -89 76 -117 132 -18 36
-40 75 -49 86 -32 41 -17 -15 19 -75 19 -32 35 -63 35 -69 0 -16 -36 -14 -70
4 -42 21 -49 0 -8 -25 18 -11 38 -20 43 -20 6 0 30 -13 55 -30 24 -16 56 -32
71 -35 15 -4 74 -48 131 -98 96 -86 106 -99 153 -193 28 -55 62 -118 77 -140
29 -41 164 -369 175 -425 9 -46 -15 -34 -52 28 -16 27 -43 65 -58 84 -16 19
-41 64 -56 100 -33 77 -219 416 -234 426 -31 19 77 -201 174 -353 62 -96 48
-122 -33 -61 -28 21 -55 56 -78 99 -27 51 -118 202 -137 227 -2 2 -5 2 -7 0
-8 -7 16 -89 25 -89 12 0 89 -116 89 -134 0 -9 -6 -16 -13 -16 -15 0 -97 58
-97 69 0 9 -45 31 -63 31 -6 0 4 -13 23 -28 23 -20 31 -34 27 -46 -7 -18 -5
-18 -120 10 -68 16 -85 15 -73 -5 11 -17 78 -31 183 -39 l98 -8 124 -90 c150
-107 179 -134 226 -215 20 -35 51 -80 70 -101 18 -22 37 -56 43 -76 6 -20 22
-64 36 -98 26 -61 116 -365 116 -390 0 -22 -28 -16 -44 9 -8 12 -20 41 -26 64
-12 37 -15 40 -32 30 -17 -10 -23 -8 -42 16 -13 16 -37 66 -55 111 -18 46 -54
116 -80 157 -26 41 -60 98 -77 126 -26 48 -44 66 -44 45 0 -4 20 -42 45 -85
25 -42 65 -112 90 -154 49 -85 54 -103 27 -103 -30 0 -168 85 -242 149 -39 33
-77 61 -83 61 -7 -1 3 -13 21 -29 37 -32 41 -57 11 -66 -26 -9 -99 2 -144 21
-70 29 -71 8 -2 -28 34 -17 58 -21 123 -19 68 1 85 -2 108 -20 14 -11 66 -40
116 -65 50 -24 111 -63 136 -86 49 -45 209 -246 224 -281 27 -64 180 -774 180
-836 0 -42 -31 -19 -86 65 -38 57 -66 115 -84 173 -46 145 -104 290 -174 430
-36 73 -66 142 -66 152 0 10 -4 21 -10 24 -28 17 8 -86 88 -255 72 -151 154
-372 143 -383 -6 -6 -25 6 -50 29 -35 33 -47 56 -77 144 -20 58 -64 166 -99
240 -34 74 -75 171 -90 215 -29 83 -45 112 -45 82 0 -31 37 -128 103 -272 127
-279 140 -331 68 -289 -25 15 -37 37 -76 148 -27 74 -70 170 -100 222 -30 50
-65 115 -79 145 -13 30 -25 46 -25 37 -2 -29 38 -119 84 -194 51 -82 105 -197
105 -225 0 -29 -28 -23 -48 11 -14 21 -21 27 -29 19 -8 -8 -29 -8 -74 0 -34 6
-65 8 -68 6 -11 -11 18 -26 66 -34 69 -11 120 -47 314 -229 125 -116 179 -175
227 -245 35 -51 71 -103 80 -117 23 -33 25 -235 3 -235 -8 0 -19 15 -25 33 -9
27 -14 30 -24 20 -19 -18 -42 15 -42 60 0 55 -101 324 -116 309 -3 -3 17 -72
45 -154 28 -82 51 -156 51 -166 0 -23 -20 -30 -52 -18 -20 7 -32 27 -53 83
-52 137 -137 343 -146 353 -24 25 -3 -50 61 -213 39 -98 70 -184 70 -190 0 -7
-11 -17 -25 -24 -19 -9 -29 -8 -49 6 -32 21 -54 64 -123 240 -54 139 -73 177
-73 144 0 -17 31 -104 94 -265 20 -51 34 -98 31 -105 -3 -7 9 -21 26 -31 25
-14 30 -23 27 -41 -4 -18 1 -27 17 -34 15 -7 27 -29 39 -69 26 -86 30 -92 34
-57 1 17 -8 61 -22 97 -22 60 -23 68 -10 82 20 20 30 19 53 -4 18 -18 52 -143
53 -201 1 -17 -10 -43 -26 -65 -45 -58 -62 -48 -123 75 -29 58 -50 111 -48
118 3 7 -9 25 -26 39 -22 19 -29 33 -27 52 2 18 -4 32 -21 45 -28 23 -88 144
-132 267 -17 49 -35 86 -39 84 -19 -12 83 -275 149 -384 28 -46 51 -91 51 -99
0 -8 11 -30 25 -48 27 -36 64 -111 65 -131 0 -19 -29 -43 -45 -37 -8 4 -20 24
-25 46 -6 21 -30 71 -53 110 -32 55 -49 74 -72 80 -17 5 -74 50 -132 106 -101
96 -103 99 -103 144 0 57 -21 117 -66 191 -46 75 -43 91 21 97 47 5 51 7 62
40 23 68 14 104 -39 148 -16 13 -35 38 -42 56 -7 17 -30 51 -50 74 -20 24 -36
45 -36 45 0 1 -7 38 -15 81 -12 64 -22 86 -50 117 -40 45 -43 62 -15 104 30
45 25 61 -29 102 -27 21 -55 49 -61 63 -7 14 -16 70 -19 126 -5 87 -10 106
-33 142 -33 49 -37 101 -10 125 10 10 40 24 65 33 26 9 49 19 52 24 11 17 -28
96 -79 164 -72 94 -78 112 -60 172 14 47 14 49 -12 84 -102 139 -120 189 -90
248 24 46 20 76 -19 155 -40 81 -42 101 -15 177 25 71 25 97 -1 162 -31 79
-15 128 54 163 20 10 22 17 20 81 -2 41 4 91 13 124 10 33 17 97 18 161 1 98
3 109 29 145 22 33 27 51 27 102 0 34 -4 62 -9 62 -10 0 -21 -35 -21 -71 0
-15 -15 -58 -32 -95 -30 -63 -32 -76 -31 -159 2 -55 -4 -113 -13 -150 -10 -38
-14 -77 -10 -107 5 -37 3 -50 -10 -60 -85 -68 -99 -117 -64 -224 22 -65 22
-66 4 -107 -13 -28 -19 -64 -19 -113 1 -61 5 -78 28 -112 40 -61 44 -88 17
-137 -31 -58 -23 -92 51 -202 60 -90 60 -91 49 -132 -16 -59 0 -104 65 -186
80 -100 83 -124 18 -151 -72 -30 -95 -126 -46 -190 23 -31 27 -48 34 -144 9
-126 22 -156 78 -193 47 -31 48 -38 21 -82 -24 -39 -15 -80 29 -135 20 -25 36
-63 49 -117 19 -84 53 -140 150 -254 63 -74 52 -129 -26 -129 -56 0 -66 -11
-60 -63 4 -31 19 -66 46 -107 24 -36 43 -78 47 -104 14 -92 -12 -111 -49 -37
-27 53 -125 143 -181 167 -17 7 -67 22 -112 33 -68 18 -90 19 -130 10 -87 -19
-115 -39 -135 -94 -22 -61 -23 -95 -3 -143 9 -20 20 -57 26 -82 5 -25 29 -74
53 -110 49 -75 66 -118 66 -170 0 -41 68 -196 97 -222 10 -9 44 -23 76 -31
100 -26 109 -36 122 -141 5 -35 14 -56 35 -75 15 -14 42 -49 59 -77 29 -48 31
-58 31 -145 0 -94 0 -94 39 -146 49 -64 61 -86 61 -113 0 -12 15 -35 35 -53
42 -37 52 -80 35 -152 -7 -29 -10 -69 -6 -89 6 -31 12 -37 46 -46 45 -12 77
-49 114 -131 30 -69 47 -83 89 -76 41 6 49 1 72 -43 23 -46 33 -51 76 -44 21
3 40 1 43 -5 4 -6 0 -34 -8 -63 -31 -109 -42 -366 -20 -481 4 -19 1 -29 -10
-33 -16 -6 -32 5 -140 99 -45 39 -87 48 -127 27 -33 -18 -21 -28 28 -22 52 6
73 -11 73 -58 0 -21 8 -28 48 -43 60 -21 102 -53 102 -77 0 -10 12 -27 26 -37
20 -15 32 -41 55 -126 16 -59 47 -153 69 -209 45 -113 51 -173 16 -173 -14 0
-37 29 -80 102 -76 126 -112 171 -128 155 -14 -14 -3 -38 62 -142 45 -72 50
-113 13 -118 -14 -2 -27 6 -40 23 -43 62 -74 92 -127 120 -115 62 -76 -24 60
-134 27 -21 62 -53 79 -70 29 -31 29 -31 11 -62 -11 -19 -16 -39 -12 -55 13
-52 2 -61 -132 -103 -70 -21 -152 -46 -182 -55 -153 -43 -253 -110 -411 -273
-98 -102 -122 -137 -237 -332 -66 -114 -153 -538 -153 -751 0 -315 121 -617
365 -915 125 -151 290 -270 396 -286 25 -3 79 -12 120 -19 50 -8 130 -11 237
-7 150 5 163 4 168 -13 3 -10 0 -29 -6 -44 -16 -33 -5 -44 20 -22 12 11 21 34
23 60 l3 41 68 3 c63 3 68 1 78 -21 13 -28 6 -45 -49 -116 -40 -52 -93 -162
-112 -235 -9 -33 -27 -63 -52 -88 -43 -43 -45 -48 -20 -48 35 0 73 56 112 164
42 117 88 199 112 204 19 4 78 -74 78 -102 0 -11 -9 -30 -21 -42 -12 -13 -16
-24 -10 -28 5 -4 15 3 21 14 15 27 38 25 52 -5 19 -42 25 -28 14 36 -10 60
-10 62 16 83 16 12 28 33 30 51 2 24 8 30 28 30 18 0 30 -9 45 -37 19 -35 19
-38 1 -93 -9 -31 -41 -95 -70 -143 -29 -48 -63 -106 -75 -129 -12 -24 -40 -55
-64 -72 -39 -27 -62 -55 -111 -133 -9 -15 -28 -35 -42 -44 -24 -16 -27 -16
-54 5 -34 25 -40 26 -40 8 0 -7 13 -26 29 -41 38 -36 61 -29 103 32 45 66 118
151 140 163 14 8 26 6 43 -5 39 -25 47 -20 30 20 -14 34 -13 38 15 92 16 31
47 84 69 117 23 33 48 81 57 107 29 88 70 56 104 -82 24 -93 25 -87 -16 -125
l-39 -36 37 7 c33 5 39 3 47 -17 8 -20 24 -102 26 -133 0 -5 -13 -17 -30 -26
-18 -10 -33 -29 -39 -50 -6 -21 -22 -40 -43 -52 -36 -22 -43 -38 -15 -38 24 0
59 37 72 77 14 38 34 48 55 27 20 -21 19 -47 -4 -68 -13 -12 -21 -35 -24 -69
-5 -67 -57 -201 -79 -205 -11 -2 -21 11 -33 48 -15 46 -37 70 -64 70 -20 0
-11 -28 14 -44 32 -21 27 -29 -50 -95 -48 -41 -67 -51 -96 -51 -82 0 -151 -49
-224 -158 -90 -137 -63 -135 32 2 60 87 88 107 159 117 44 6 72 18 123 53 36
25 71 46 77 46 6 0 19 -9 29 -20 10 -11 24 -20 32 -20 14 0 44 60 57 115 16
63 62 78 69 23 l4 -33 1 36 c2 42 22 65 40 47 15 -15 14 -85 -2 -250 -12 -130
-21 -156 -52 -144 -14 5 -16 15 -10 64 3 31 8 93 11 137 l5 80 -14 -50 c-8
-27 -15 -68 -16 -91 0 -47 -20 -71 -68 -80 -45 -9 -40 -24 9 -24 l42 0 -6 -51
c-9 -77 -35 -113 -81 -117 -23 -2 -52 4 -75 16 -22 12 -48 18 -64 15 -30 -6
-27 -23 4 -23 35 0 23 -38 -20 -59 -49 -26 -96 -73 -121 -122 -16 -30 -30 -42
-70 -56 -60 -21 -65 -38 -10 -30 57 7 86 29 115 87 37 73 162 150 245 150 37
0 45 -16 31 -66 -10 -36 -17 -42 -81 -71 -38 -17 -70 -36 -70 -42 0 -17 25
-13 53 9 27 22 52 26 62 10 7 -11 -57 -141 -77 -157 -7 -6 -26 -15 -42 -20
-38 -12 -46 -33 -12 -33 13 0 27 -4 30 -9 10 -15 -48 -116 -74 -128 -13 -7
-44 -33 -68 -59 l-43 -48 21 -16 22 -17 -43 -103 c-37 -87 -50 -107 -81 -127
-46 -28 -48 -37 -9 -28 16 3 32 2 35 -3 3 -6 -6 -43 -20 -83 -15 -41 -28 -100
-31 -132 -4 -49 -2 -62 15 -80 11 -12 30 -46 41 -74 21 -54 61 -123 72 -123 3
0 10 15 15 33 7 22 17 33 32 35 34 5 26 21 -22 42 -52 22 -76 53 -83 108 -4
31 -2 40 12 46 23 8 42 -9 50 -45 4 -16 11 -29 16 -29 19 0 8 46 -21 89 -34
50 -36 70 -14 155 18 68 29 86 53 86 13 0 16 7 13 33 -3 24 6 51 33 101 41 73
66 84 75 31 l6 -30 12 34 c7 19 12 55 12 80 0 25 9 66 20 90 19 40 22 43 50
38 33 -7 34 -5 44 91 7 69 44 137 74 136 20 -1 22 4 21 50 -2 52 37 196 58
217 22 22 36 -2 30 -52 -7 -54 6 -103 34 -134 10 -11 22 -32 28 -48 9 -22 16
-27 46 -27 31 0 38 -4 49 -33 7 -17 16 -62 20 -98 8 -84 33 -180 51 -198 25
-25 27 -5 7 61 -29 96 -48 226 -35 246 5 9 26 21 47 25 66 16 38 27 -53 20
l-89 -6 -21 39 c-12 21 -31 53 -42 71 -22 35 -32 118 -32 274 0 137 12 162 60
117 34 -32 37 -17 8 37 -21 41 -25 61 -25 140 0 102 14 139 47 119 25 -14 60
-90 67 -145 7 -49 38 -99 62 -99 21 0 17 20 -9 48 -17 18 -22 36 -22 73 0 29
5 51 12 53 7 3 35 -17 63 -45 27 -27 54 -49 59 -49 11 0 51 -96 51 -123 0 -11
-11 -34 -23 -51 -31 -40 -36 -57 -25 -79 14 -27 28 -20 28 15 0 19 9 41 22 55
15 16 23 40 26 77 7 88 34 85 125 -13 85 -92 111 -155 115 -274 3 -69 7 -97
15 -94 8 3 11 36 9 108 -2 94 -5 110 -34 169 -19 38 -56 90 -92 127 -54 54
-67 62 -111 69 -35 5 -58 15 -78 35 -16 16 -36 29 -46 29 -9 0 -32 15 -50 34
-18 19 -45 37 -59 41 -25 6 -110 75 -125 101 -7 12 -17 64 -44 232 -4 28 -2
32 16 32 13 0 26 -10 33 -24 9 -20 16 -24 38 -19 22 4 31 0 40 -17 6 -12 25
-26 41 -32 30 -10 29 -7 63 -152 9 -37 26 -89 38 -115 19 -40 22 -43 26 -22 2
13 -8 61 -23 108 -17 54 -24 95 -20 113 9 40 -6 63 -60 91 -43 23 -46 26 -39
54 4 17 8 49 8 72 0 39 -5 49 -56 100 -79 82 -98 124 -98 222 0 118 11 132 66
89 15 -13 38 -21 52 -20 32 5 50 -13 58 -57 3 -20 15 -52 26 -71 11 -19 27
-57 35 -83 11 -37 22 -53 49 -69 19 -11 39 -28 44 -38 6 -10 34 -27 62 -38 37
-14 60 -29 75 -53 60 -93 74 -109 93 -109 26 0 25 6 -7 44 -16 18 -42 53 -60
78 -22 32 -46 53 -80 68 -26 11 -60 33 -74 48 -15 15 -38 35 -53 45 -14 10
-26 27 -26 39 0 11 -14 45 -31 74 -29 52 -31 74 -5 74 12 0 91 -39 152 -75 18
-11 38 -16 49 -11 25 9 15 18 -90 73 -79 41 -117 60 -234 116 -14 7 -29 25
-34 41 -11 34 11 70 62 100 28 16 37 17 77 6 44 -13 64 -31 95 -87 15 -28 125
-100 136 -89 11 11 -26 53 -56 66 -18 7 -48 36 -71 69 -48 67 -43 77 51 92 91
14 197 47 249 76 25 14 122 75 216 135 182 116 243 170 338 302 112 156 185
332 225 546 12 63 31 152 41 197 36 150 21 301 -53 518 -69 205 -130 320 -263
498 -105 140 -146 181 -239 237 -137 82 -221 112 -455 160 -85 18 -172 39
-193 46 -20 8 -53 14 -72 14 -45 0 -55 20 -55 114 0 42 -3 76 -8 76 -4 0 -18
-7 -30 -16 -52 -36 -72 24 -26 80 14 17 49 40 77 52 56 22 61 33 42 111 -10
44 11 51 79 28 48 -16 54 -16 82 -2 27 14 34 14 58 1 18 -8 42 -12 65 -8 31 5
42 1 79 -31 31 -27 42 -44 42 -65 0 -35 -2 -36 -67 -45 -51 -7 -53 -6 -53 17
0 13 5 29 11 35 6 6 9 17 7 25 -6 17 -70 -82 -65 -102 1 -8 11 -14 22 -12 11
1 41 5 67 8 30 4 59 2 78 -6 47 -20 56 -4 40 70 -16 77 -37 103 -111 140 -64
33 -110 37 -149 15 -40 -23 -66 -18 -90 15 -12 17 -28 30 -36 30 -8 0 -32 -17
-55 -37 -37 -33 -41 -41 -36 -73 3 -19 8 -42 12 -51 9 -24 -23 -53 -41 -38 -8
6 -14 20 -14 30 0 52 -83 -2 -126 -81 -30 -56 -60 -72 -81 -44 -15 20 -16 50
-4 113 6 31 5 53 -5 77 -20 48 -17 118 6 164 11 22 20 48 20 59 0 11 14 34 30
51 17 17 30 41 30 53 0 30 9 41 50 62 19 10 58 39 87 65 57 52 87 65 103 45
11 -14 7 -21 -34 -49 -12 -8 -17 -19 -13 -30 10 -26 34 -19 56 18 15 23 40 42
83 61 75 33 72 31 63 45 -4 7 -19 3 -46 -12 l-39 -22 -48 20 c-57 24 -65 52
-30 104 26 38 56 45 69 18 5 -10 13 -26 18 -35 9 -19 33 -21 107 -8 39 7 42 5
64 -26 13 -19 34 -46 48 -61 36 -39 24 -62 -29 -54 -48 8 -51 -13 -5 -25 37
-10 74 5 86 36 12 31 5 49 -26 70 -13 8 -33 33 -44 55 -18 35 -25 40 -55 40
-18 0 -46 -5 -61 -10 -37 -14 -61 -4 -69 28 -16 65 -57 70 -108 13 -49 -54
-60 -78 -53 -115 6 -30 2 -36 -45 -76 -28 -23 -72 -50 -97 -60 -47 -18 -54
-27 -67 -92 -3 -17 -14 -29 -33 -36 -23 -8 -33 -22 -50 -70 -28 -76 -46 -92
-64 -60 -21 38 -18 385 6 528 25 157 71 346 91 376 20 32 41 40 60 24 18 -15
19 -64 4 -145 -19 -101 12 -107 187 -34 83 35 118 65 135 117 15 48 33 62 73
55 22 -3 46 2 72 15 45 23 68 46 121 122 35 50 38 61 37 120 0 64 -10 94 -53
169 -24 41 -17 60 33 90 46 29 60 67 53 150 -6 71 2 97 26 88 22 -8 57 -123
57 -186 1 -125 38 -200 120 -245 37 -20 50 -33 54 -56 3 -17 9 -44 12 -61 3
-17 28 -56 56 -86 l49 -55 -6 -86 c-6 -81 -4 -93 24 -173 22 -61 32 -113 37
-183 7 -95 8 -99 55 -169 63 -95 65 -97 97 -97 50 0 63 18 51 70 -8 37 -7 55
10 105 11 33 25 84 31 113 5 29 20 66 32 83 19 26 23 42 21 102 -1 40 -8 100
-16 135 -10 41 -12 72 -7 90 18 58 50 136 60 146 17 17 11 72 -15 128 -32 67
-32 102 0 140 30 35 32 73 9 173 -8 39 -18 80 -20 93 -2 12 -20 40 -39 61 -42
47 -61 89 -70 161 -9 71 -25 94 -84 125 -60 30 -65 37 -62 93 1 32 -6 60 -26
100 -37 72 -77 98 -168 106 -116 11 -303 -46 -403 -122 -18 -14 -85 -89 -147
-168 -63 -78 -131 -155 -152 -172 -55 -43 -144 -85 -258 -122 -61 -19 -121
-47 -155 -71 -31 -21 -61 -39 -68 -39 -21 0 -25 50 -18 229 8 210 12 219 80
183 48 -26 68 -59 85 -144 18 -85 32 -93 133 -78 l83 13 78 76 c43 42 101 108
130 146 28 39 76 97 105 130 30 33 63 78 74 99 19 37 19 41 4 73 -20 42 -15
51 62 125 52 50 66 58 111 64 37 5 65 17 98 42 34 26 62 38 101 43 64 9 97 35
114 92 8 25 23 47 45 61 71 49 133 151 133 220 0 36 7 52 35 86 33 39 35 47
35 112 0 39 -7 97 -16 130 -8 33 -12 72 -9 87 3 15 32 53 64 85 57 57 59 60
66 125 4 36 16 88 27 114 26 60 21 137 -15 227 l-26 63 25 58 c34 83 34 163
-3 201 l-27 28 13 72 c31 174 27 188 -45 188 -50 0 -90 30 -79 58 3 9 10 49
15 90 7 52 21 96 50 155 37 75 41 87 40 162 0 44 2 140 5 213 l6 132 -36 33
-36 33 15 39 c8 22 28 70 45 106 l30 67 -9 118 c-8 108 -26 209 -45 257 -12
30 -50 30 -137 2 -120 -40 -253 -110 -309 -162 -44 -41 -52 -56 -79 -144 -24
-77 -37 -103 -62 -124 -29 -24 -32 -34 -44 -128 -10 -73 -19 -109 -34 -127
-44 -55 -50 -69 -59 -138 -11 -89 -15 -96 -55 -87 -100 21 -112 19 -141 -19
-24 -32 -27 -43 -23 -88 5 -43 0 -62 -28 -124 -19 -40 -34 -86 -34 -101 0 -20
-10 -39 -31 -59 -62 -59 -65 -73 -43 -226 6 -45 4 -50 -30 -88 -20 -22 -36
-49 -36 -60 0 -11 16 -43 35 -71 50 -72 66 -139 45 -180 -9 -16 -20 -19 -65
-18 -29 1 -68 -4 -85 -11 -18 -7 -35 -9 -39 -4 -5 5 -5 72 0 149 4 77 11 262
15 410 5 228 4 282 -10 345 -27 125 -22 288 14 433 16 67 36 156 45 197 20 97
20 289 0 354 -11 37 -15 102 -15 264 0 176 -3 220 -16 248 -20 42 -39 43 -60
3z m46 -54 c10 -12 11 -49 4 -163 -10 -182 -7 -252 12 -322 11 -39 14 -92 12
-185 -3 -113 -5 -130 -19 -129 -13 1 -18 -11 -22 -58 -6 -67 -22 -95 -43 -77
-11 9 -14 60 -14 245 0 132 -4 235 -9 239 -5 3 -12 -3 -15 -12 -8 -28 -10
-296 -2 -314 11 -25 -14 -36 -31 -14 -12 17 -13 17 -13 -10 0 -16 10 -39 21
-51 29 -31 44 -103 41 -194 -1 -42 3 -85 9 -97 9 -16 8 -39 -6 -100 -9 -43
-24 -94 -32 -113 -8 -19 -21 -87 -29 -150 -18 -148 -21 -160 -39 -160 -20 0
-28 41 -21 103 6 45 4 54 -14 69 -15 13 -20 30 -20 66 0 39 -4 49 -22 57 -25
11 -41 59 -36 113 4 49 31 50 38 2 4 -22 8 3 12 70 4 63 15 132 28 173 12 38
19 71 16 74 -10 10 -25 -8 -31 -40 -12 -59 -17 -68 -39 -77 -19 -7 -23 -19
-34 -116 -13 -124 -3 -204 42 -334 14 -41 32 -114 40 -161 43 -252 54 -844 17
-938 -6 -14 -11 -39 -13 -56 -2 -19 -9 -30 -18 -30 -12 0 -15 14 -12 75 1 41
5 85 7 98 4 17 1 22 -14 22 -11 0 -22 8 -25 18 -3 9 -3 -1 0 -24 6 -45 -14
-76 -34 -52 -8 11 -49 218 -53 270 -1 7 -4 2 -8 -11 -10 -36 -28 -36 -46 -2
-17 34 -12 98 11 128 12 17 13 16 23 -7 7 -19 9 7 9 100 -1 80 -3 107 -7 75
-5 -41 -9 -50 -26 -50 -14 0 -21 8 -24 25 -4 33 18 130 30 130 5 0 9 10 9 22
0 12 7 30 16 40 14 15 15 20 3 34 -10 12 -13 45 -11 123 1 58 -2 133 -8 166
-6 33 -16 87 -22 120 -19 103 -15 146 22 210 27 47 32 67 31 111 -1 38 6 68
20 96 12 23 30 67 40 96 12 34 36 73 63 102 52 55 62 86 71 225 6 84 15 126
62 265 36 107 57 185 58 222 4 77 17 96 45 63z m1208 -417 c15 -20 33 -122 41
-233 l7 -100 -43 -107 c-52 -129 -54 -162 -14 -182 38 -20 41 -31 41 -144 -1
-74 -5 -105 -19 -131 -17 -32 -17 -37 -3 -73 13 -33 14 -47 3 -86 -15 -60 -58
-125 -76 -118 -11 4 -13 -12 -12 -77 1 -45 -2 -103 -6 -129 -11 -64 12 -88 83
-88 45 0 50 -2 56 -26 4 -14 1 -38 -6 -52 -7 -15 -16 -58 -21 -96 -9 -68 -8
-69 22 -104 28 -32 31 -40 26 -84 -3 -26 -15 -69 -27 -94 -26 -60 -25 -80 5
-146 37 -82 42 -135 16 -194 -12 -27 -26 -78 -30 -113 -7 -61 -11 -68 -55
-107 -76 -69 -94 -138 -62 -243 28 -96 21 -141 -34 -201 -28 -31 -31 -40 -25
-75 5 -35 0 -49 -32 -102 -21 -35 -59 -78 -85 -98 -34 -26 -50 -46 -58 -74
-13 -50 -37 -70 -94 -77 -29 -4 -60 -17 -82 -35 -34 -27 -49 -33 -140 -58 -30
-8 -60 -31 -117 -90 -81 -83 -88 -100 -62 -150 13 -27 13 -31 -13 -69 -15 -22
-46 -54 -69 -71 -23 -16 -45 -40 -49 -53 -12 -41 -63 -105 -148 -192 -80 -81
-86 -85 -139 -91 -81 -10 -90 -6 -105 45 -37 131 -48 147 -124 186 -36 18 -48
30 -48 47 0 27 35 86 55 93 8 4 15 14 15 24 0 21 25 44 40 35 15 -9 12 -22 -9
-42 -17 -16 -40 -73 -29 -73 3 0 24 29 48 64 51 75 77 94 108 77 27 -15 76
-85 91 -133 7 -21 19 -38 27 -38 22 0 17 22 -21 85 -45 74 -41 90 16 70 54
-19 84 -19 115 1 24 16 27 16 54 -5 55 -40 67 -24 19 25 -26 27 -29 35 -20 52
15 29 63 66 142 112 65 38 85 60 57 60 -7 0 -46 -19 -87 -43 -57 -32 -89 -59
-134 -114 -32 -40 -66 -73 -75 -73 -30 0 -187 52 -198 66 -9 11 -15 9 -34 -11
-25 -26 -54 -33 -66 -14 -6 11 37 79 116 181 25 31 66 86 91 120 51 70 125
121 135 94 4 -10 -20 -47 -68 -103 -90 -107 -131 -160 -148 -193 -13 -24 -12
-24 5 -10 10 8 49 56 87 105 37 50 99 131 138 180 38 50 75 98 82 108 9 12 26
18 54 19 68 1 98 -22 202 -151 32 -40 35 -41 92 -41 64 0 90 7 90 22 0 7 -21
9 -61 5 -58 -7 -61 -6 -87 24 -15 17 -56 59 -91 95 -38 38 -61 68 -55 73 5 5
56 17 114 26 85 13 115 23 155 49 28 18 59 36 70 40 11 3 25 16 30 28 6 13 21
28 35 35 20 10 24 18 22 43 -4 31 27 141 54 191 7 15 28 37 46 50 40 27 148
130 148 141 0 20 -28 3 -91 -57 -38 -36 -73 -65 -78 -65 -18 0 -63 -82 -95
-174 -37 -107 -61 -139 -144 -193 -44 -29 -75 -38 -190 -59 -75 -14 -158 -32
-184 -40 -26 -8 -52 -14 -57 -14 -25 0 -8 48 39 112 53 73 59 88 35 88 -8 0
-15 6 -15 14 0 19 39 66 55 66 8 0 40 34 72 76 46 62 55 79 46 93 -14 22 0 49
33 61 21 8 23 13 15 29 -16 29 10 95 39 99 21 3 22 1 17 -30 l-6 -33 17 25 c9
14 47 59 84 100 164 184 170 191 227 209 68 22 82 45 22 35 -53 -8 -61 10 -27
60 13 20 32 60 41 89 32 99 57 131 137 172 76 39 108 62 108 77 0 16 -24 7
-102 -38 -44 -25 -86 -43 -93 -40 -14 5 -11 103 5 180 6 25 5 45 -3 56 -8 14
-5 38 15 107 40 138 57 220 67 333 6 58 15 129 21 159 5 29 10 68 9 85 -1 59
-15 -3 -33 -144 -19 -150 -47 -287 -81 -400 -17 -57 -25 -118 -32 -255 -11
-197 -21 -239 -93 -390 -42 -87 -170 -245 -227 -278 -49 -28 -53 -1 -10 65 36
54 109 282 111 344 1 17 7 38 15 47 11 13 11 20 1 32 -9 11 -8 31 4 91 31 148
56 338 56 423 0 47 4 127 9 177 8 81 13 97 50 153 45 71 75 144 86 211 10 62
28 88 70 96 21 4 35 12 35 21 0 8 -6 13 -12 10 -38 -14 -54 -16 -68 -7 -21 13
1 111 37 158 16 20 35 50 43 66 8 16 29 38 45 48 26 15 34 29 49 91 10 41 16
80 14 88 -3 8 -10 -6 -17 -31 -6 -25 -17 -56 -24 -70 -14 -27 -45 -39 -57 -20
-4 6 -17 -16 -30 -52 -12 -35 -27 -68 -32 -74 -20 -26 -57 -138 -63 -192 -12
-110 -37 -208 -72 -279 -38 -78 -55 -99 -74 -87 -9 5 -10 59 -6 208 5 189 8
206 36 294 17 50 31 100 31 110 0 31 31 64 84 87 60 27 94 51 84 60 -3 4 -20
-1 -37 -9 -64 -34 -66 -14 -8 104 28 56 49 86 61 89 20 3 20 -4 0 -98 -5 -22
-4 -32 3 -28 6 4 15 32 22 64 6 32 22 82 36 111 32 70 31 74 -5 30 -17 -21
-43 -43 -58 -50 -20 -10 -44 -48 -97 -152 -39 -77 -76 -141 -83 -144 -8 -2
-12 9 -12 35 l0 38 -20 -30 c-11 -16 -20 -46 -20 -65 0 -19 -12 -78 -26 -130
-37 -139 -43 -180 -32 -209 5 -14 11 -98 12 -186 2 -88 8 -182 15 -208 19 -80
-17 -557 -49 -641 -20 -53 -35 -24 -41 80 -7 103 -34 190 -78 253 -20 27 -20
31 -6 71 17 49 32 194 17 170 -5 -8 -13 -42 -17 -75 -10 -89 -15 -105 -34
-105 -10 0 -23 11 -29 25 -14 30 -16 137 -3 150 12 13 22 295 11 295 -11 0
-17 -34 -29 -163 -13 -132 -32 -156 -73 -92 -13 19 -29 35 -35 35 -24 0 -13
-21 32 -65 40 -38 47 -52 57 -106 8 -49 20 -74 60 -126 70 -90 122 -259 117
-375 -2 -23 4 -43 15 -53 20 -21 19 -32 -31 -200 -49 -168 -76 -240 -146 -395
-70 -156 -84 -180 -104 -180 -12 0 -14 7 -9 28 14 63 18 180 7 214 -10 31 -9
40 10 72 18 30 19 36 5 36 -22 0 -49 45 -48 80 0 19 -5 30 -17 33 -13 3 -23
27 -37 88 -28 122 -22 440 12 617 4 19 2 32 -4 32 -20 0 -33 -68 -42 -215 -19
-317 -5 -457 60 -571 27 -49 29 -59 35 -210 8 -193 -5 -269 -57 -341 -19 -27
-47 -73 -62 -103 -39 -80 -177 -255 -201 -255 -17 0 -19 6 -16 48 1 27 11 67
22 90 23 52 24 65 2 63 -37 -2 -19 116 63 439 3 14 0 12 -10 -6 -18 -30 -56
-172 -56 -207 0 -30 -17 -62 -34 -62 -22 0 -38 72 -43 200 -6 160 6 229 53
298 38 55 40 79 3 46 -50 -45 -79 -142 -79 -269 0 -101 -7 -120 -39 -110 -30
9 -27 -19 5 -42 37 -28 83 -164 90 -272 7 -102 -8 -247 -32 -293 -19 -39 -138
-200 -160 -219 -32 -27 -32 8 2 91 38 94 64 186 63 221 0 13 -25 -50 -54 -140
-35 -107 -52 -174 -48 -192 6 -30 -21 -79 -43 -79 -8 0 -19 11 -26 25 -9 20
-5 41 20 122 57 181 123 476 109 490 -12 12 -16 -2 -47 -163 -48 -259 -65
-309 -97 -297 -16 6 -14 54 3 98 7 18 6 19 -10 6 -29 -24 -47 6 -53 85 -2 38
-9 79 -15 90 -7 15 -7 32 0 55 6 19 25 101 42 184 34 163 46 192 88 201 52 11
72 24 89 58 16 35 13 60 -13 122 -3 6 11 30 31 54 24 28 35 52 35 74 0 54 18
98 54 131 l35 32 -6 89 c-3 49 -1 105 4 124 l9 35 83 7 c57 5 89 12 102 24 36
33 18 152 -35 230 -36 54 -34 80 9 105 41 24 44 47 19 142 -19 74 -13 101 32
142 27 25 37 43 43 82 4 27 20 72 36 99 24 43 28 59 26 121 -1 62 2 76 20 94
25 25 56 20 104 -17 17 -13 35 -24 39 -24 14 0 48 93 56 153 5 35 18 72 29 86
41 51 53 85 61 167 7 77 10 87 43 123 26 29 44 65 63 128 43 137 105 190 329
280 86 34 127 40 143 21z m-1254 -980 c4 -13 9 -65 13 -115 5 -82 4 -93 -11
-93 -21 0 -20 -15 5 -119 25 -100 21 -160 -12 -168 -22 -6 -22 -2 -4 -78 17
-69 19 -131 6 -140 -5 -3 -17 3 -27 12 -17 17 -18 17 -11 -1 12 -32 37 -187
37 -231 0 -27 -6 -47 -16 -56 -12 -10 -14 -24 -9 -72 7 -55 5 -60 -21 -88 -15
-16 -36 -29 -46 -29 -25 0 -34 44 -14 75 11 16 16 46 16 89 0 36 5 68 10 71
16 10 11 102 -10 205 -22 105 -26 185 -9 195 15 10 19 4 40 -72 16 -57 18 -61
14 -23 -3 25 -19 89 -36 143 -25 80 -29 104 -22 135 7 27 14 37 27 35 15 -1
17 4 11 25 -3 15 -9 50 -12 78 -4 43 -2 54 13 65 15 11 19 27 19 79 0 36 3 73
7 83 10 24 34 21 42 -5z m4 -1192 c5 -24 -13 -43 -47 -49 -22 -5 -32 -15 -41
-42 -19 -59 -60 -35 -60 35 0 26 6 33 34 45 19 8 41 12 49 9 8 -3 20 2 27 11
16 19 34 15 38 -9z m-140 -138 c7 -7 12 -20 12 -30 0 -10 5 -27 12 -37 10 -17
6 -26 -26 -66 -21 -25 -43 -44 -49 -42 -21 7 -30 70 -14 102 8 16 19 42 25 58
13 30 22 33 40 15z m0 -220 c29 -29 3 -98 -33 -84 -28 10 -14 96 15 96 3 0 11
-5 18 -12z m-164 -208 c-5 -96 -26 -183 -59 -246 -26 -50 -42 -103 -60 -194
-13 -69 -29 -141 -34 -160 -6 -19 -11 -78 -11 -131 0 -87 3 -102 30 -155 16
-32 30 -62 30 -66 0 -10 -70 -48 -91 -48 -22 0 -24 11 -7 57 9 26 10 36 1 41
-21 13 -33 63 -44 184 -11 131 -22 197 -38 241 -26 68 -5 189 58 340 46 108
121 170 201 164 20 -2 25 -7 24 -27z m-324 -290 c0 -5 -4 -10 -10 -10 -5 0
-10 5 -10 10 0 6 5 10 10 10 6 0 10 -4 10 -10z m848 -131 c-19 -30 -60 -83
-91 -119 -74 -86 -267 -329 -267 -335 0 -3 -29 -57 -64 -120 -35 -63 -66 -133
-70 -155 -7 -44 -27 -60 -52 -39 -53 44 62 233 413 676 89 112 143 167 155
155 7 -7 -1 -27 -24 -63z m-1971 -33 c45 -14 98 -32 117 -41 50 -24 122 -90
161 -148 24 -35 61 -67 128 -113 53 -35 110 -81 128 -104 21 -26 41 -40 55
-40 13 0 28 -6 34 -12 25 -30 100 -165 100 -181 0 -48 48 -75 77 -46 22 22 41
0 104 -118 123 -232 149 -289 162 -353 l12 -65 49 3 c67 4 86 -14 86 -85 0
-40 6 -63 25 -91 21 -32 26 -53 31 -142 3 -58 12 -121 19 -140 15 -41 6 -71
-26 -93 -16 -11 -27 -13 -40 -7 -34 19 -66 11 -94 -21 -19 -24 -29 -29 -37
-21 -9 9 -8 18 0 37 15 33 15 33 -5 31 -14 -1 -23 21 -44 114 -29 121 -36 222
-19 280 7 24 6 36 -1 41 -15 9 -86 193 -112 289 -24 86 -24 87 -37 74 -13 -13
20 -151 55 -228 55 -123 82 -311 46 -311 -8 0 -30 32 -50 70 -20 39 -65 114
-101 167 -117 174 -112 164 -123 275 -9 94 -8 107 11 159 23 58 29 106 13 88
-5 -5 -11 -20 -13 -34 -1 -14 -10 -26 -19 -28 -13 -2 -22 14 -38 65 -19 61
-60 134 -61 107 0 -5 14 -50 31 -100 33 -97 66 -311 50 -327 -20 -20 -39 6
-118 165 -115 228 -141 291 -154 366 -11 71 -46 147 -85 183 -29 28 -31 14 -3
-26 11 -16 31 -52 45 -79 21 -40 23 -51 12 -62 -17 -17 -25 -11 -81 63 -26 34
-62 74 -81 90 -18 15 -55 56 -81 91 -51 65 -55 68 -71 52 -8 -8 -27 0 -62 25
-51 35 -72 43 -72 26 0 -4 44 -41 98 -82 123 -94 290 -259 327 -324 16 -27 46
-76 67 -109 35 -54 49 -96 31 -96 -5 0 -28 14 -53 31 -25 16 -79 47 -120 68
-80 41 -106 63 -157 126 -50 64 -50 32 1 -36 25 -35 46 -71 46 -81 0 -13 8
-18 31 -18 37 0 169 -67 248 -125 45 -33 65 -58 101 -125 25 -47 80 -125 123
-175 79 -91 105 -130 94 -141 -11 -11 -43 6 -92 50 -43 38 -51 41 -61 28 -10
-14 -14 -14 -28 -3 -12 10 -14 17 -5 27 6 8 15 11 20 8 13 -8 10 9 -5 29 -9
12 -16 14 -21 8 -9 -15 -45 -14 -45 1 0 6 -6 3 -14 -7 -13 -18 -15 -18 -40 -2
-14 10 -33 28 -42 42 -23 35 -38 31 -19 -4 20 -39 63 -72 171 -127 49 -25 96
-52 104 -59 8 -7 32 -20 53 -29 63 -26 142 -110 193 -205 64 -120 129 -310
112 -328 -7 -7 -18 -9 -24 -5 -26 18 -76 104 -98 170 -25 73 -127 254 -133
236 -2 -5 26 -63 62 -129 36 -66 64 -127 62 -135 -3 -19 -34 -25 -51 -11 -7 6
-23 37 -34 69 -12 33 -44 85 -75 122 -30 36 -65 85 -77 110 -13 25 -25 39 -27
33 -9 -27 20 -84 83 -159 74 -88 90 -115 81 -138 -10 -24 -31 -19 -82 20 -59
45 -82 39 -33 -9 25 -23 58 -41 95 -52 95 -28 214 -119 252 -193 17 -33 18
-48 10 -127 -14 -132 -41 -144 -60 -24 -14 88 -18 99 -38 99 -28 0 -42 -23
-50 -82 -4 -30 -10 -59 -15 -66 -14 -23 -44 -12 -75 27 -20 25 -42 41 -63 45
-40 8 -68 33 -68 61 0 20 -32 56 -149 164 -28 27 -32 36 -26 59 4 15 9 57 12
93 4 66 4 67 -31 101 -20 19 -63 88 -96 152 -60 115 -61 119 -54 176 6 54 4
65 -26 122 -18 35 -46 77 -62 95 -23 23 -31 43 -35 80 -9 99 -17 108 -127 140
-66 20 -69 22 -111 107 -31 62 -35 79 -29 115 6 37 3 47 -25 86 -17 24 -31 49
-31 55 0 6 -20 31 -45 56 -37 35 -45 50 -45 79 0 20 -12 59 -26 86 -23 47 -25
55 -14 100 14 56 18 61 85 88 62 25 54 25 152 -3z m1442 -97 c6 -27 19 -75 30
-107 10 -31 22 -96 25 -143 6 -74 4 -94 -15 -145 -12 -32 -27 -65 -34 -73 -21
-21 -45 -6 -45 29 0 17 -11 47 -25 68 -62 93 -74 183 -38 271 9 20 22 60 30
90 25 97 53 101 72 10z m-405 -338 c21 -47 24 -49 40 -33 16 16 18 16 32 -3 8
-10 13 -24 11 -30 -5 -15 -39 -19 -47 -5 -6 10 -14 7 -31 -9 -42 -39 -61 -25
-78 57 -13 62 -9 72 25 72 20 0 29 -10 48 -49z m166 -3 c31 -113 28 -350 -6
-598 -13 -98 -19 -118 -40 -137 -31 -29 -58 -20 -50 16 3 14 9 49 15 76 6 28
18 84 27 125 14 58 18 127 19 310 1 129 3 241 3 248 3 24 21 2 32 -40z m1330
-110 c0 -7 -25 -35 -55 -63 -50 -45 -58 -57 -71 -115 -10 -41 -13 -84 -9 -116
4 -38 1 -63 -14 -100 -22 -57 -51 -271 -44 -326 4 -27 0 -40 -13 -52 -11 -8
-34 -27 -51 -41 -41 -33 -43 -71 -8 -131 37 -63 49 -136 30 -181 -17 -40 -97
-142 -123 -157 -9 -5 -38 -8 -65 -7 -42 2 -51 -2 -74 -27 -14 -17 -37 -52 -52
-78 -23 -42 -33 -52 -81 -69 -30 -11 -65 -26 -78 -33 -13 -7 -33 -12 -45 -10
-21 3 -22 7 -18 91 4 99 -11 137 -53 137 -13 0 -29 7 -36 15 -10 12 -4 24 36
70 60 71 80 82 104 60 12 -11 20 -13 25 -6 10 17 43 13 54 -6 10 -17 12 -17
26 2 46 59 56 67 81 61 22 -6 27 -2 41 33 18 47 37 57 68 37 21 -14 55 -72 55
-95 0 -17 20 -13 27 5 8 21 -23 79 -58 108 -15 13 -46 26 -68 30 -29 4 -41 11
-41 23 0 24 146 173 203 207 45 27 47 30 32 46 -19 21 -13 95 12 144 10 19 11
32 5 38 -17 17 -41 -32 -50 -99 -10 -69 -17 -81 -141 -218 -45 -49 -91 -104
-104 -122 -12 -18 -54 -51 -97 -75 -44 -25 -105 -72 -147 -114 l-73 -73 -30
15 c-16 9 -30 22 -30 31 0 59 121 308 145 299 13 -5 11 -11 -41 -145 -24 -63
-43 -115 -41 -117 5 -5 81 157 107 229 23 61 63 117 76 105 6 -6 -15 -98 -34
-147 -3 -8 -1 -12 5 -8 6 4 25 57 43 119 39 137 45 148 71 148 19 0 20 -4 15
-36 -4 -19 -10 -43 -13 -51 -4 -10 -2 -14 4 -10 5 3 18 36 28 72 16 61 78 174
105 190 6 4 17 2 22 -3 8 -8 2 -33 -22 -86 -17 -41 -30 -80 -28 -87 2 -6 19
27 37 74 48 123 65 148 98 145 20 -2 28 2 31 17 4 17 2 18 -12 6 -23 -19 -66
-6 -66 20 0 12 14 49 30 83 23 46 50 78 111 131 44 39 87 76 96 82 31 24 4 25
-29 2 -111 -77 -186 -165 -224 -262 -23 -59 -131 -189 -170 -206 -17 -6 -39
-30 -53 -54 -77 -136 -131 -198 -131 -150 0 33 140 270 166 280 8 3 36 35 62
72 116 165 243 317 290 349 48 33 216 110 240 111 6 1 12 -5 12 -11z m-1180
-8 c19 -12 20 -182 2 -280 -8 -44 -10 -126 -6 -255 6 -173 -4 -342 -22 -390
-12 -29 -32 -15 -39 28 -4 23 -16 62 -26 86 -10 24 -19 62 -19 85 0 23 -9 59
-21 80 -18 34 -19 44 -10 85 15 66 41 327 41 416 0 79 15 125 47 144 22 13 34
13 53 1z m1387 -10 c46 -28 86 -111 87 -180 l1 -55 55 -27 c72 -36 86 -55 94
-123 7 -66 14 -81 69 -155 41 -55 46 -69 63 -206 6 -44 3 -57 -20 -96 -14 -25
-26 -52 -26 -60 0 -8 14 -48 31 -89 21 -53 28 -83 24 -106 -6 -35 -39 -82 -50
-71 -15 15 -23 81 -12 99 9 15 7 23 -10 41 -11 13 -36 57 -55 98 -19 41 -56
106 -81 143 -26 38 -47 73 -47 78 0 6 -9 7 -21 4 -13 -5 -25 -2 -30 6 -9 15 9
42 22 33 12 -7 11 13 -3 52 -10 27 -14 30 -29 21 -10 -6 -20 -9 -21 -7 -2 3
-37 61 -78 130 -116 195 -121 202 -137 189 -10 -9 -22 -8 -51 5 -21 10 -42 16
-48 15 -34 -6 -49 32 -22 59 17 17 31 15 72 -13 31 -21 40 -23 56 -13 22 14
69 2 80 -22 58 -118 105 -209 108 -206 2 2 -10 31 -27 65 -17 33 -31 63 -31
67 0 4 14 4 31 0 29 -5 30 -4 18 12 -7 9 -28 33 -45 52 -18 19 -40 53 -49 75
-9 22 -37 66 -62 97 -24 32 -41 63 -37 69 23 38 131 50 181 19z m-1612 -14
c23 -23 24 -28 19 -128 -7 -148 -35 -336 -51 -350 -17 -14 -14 -18 -62 82 -22
47 -61 122 -86 166 l-45 82 35 42 c20 24 41 52 47 64 35 69 98 87 143 42z
m1449 -77 c35 -41 58 -87 51 -99 -3 -6 -17 -10 -30 -10 -18 0 -33 14 -60 55
-21 30 -35 62 -31 70 9 25 43 17 70 -16z m-60 -41 c8 -14 7 -22 -6 -35 -14
-14 -22 -15 -43 -5 -24 11 -33 40 -18 56 12 12 56 2 67 -16z m-1077 -100 c11
-18 4 -414 -8 -461 -7 -28 -15 -37 -27 -35 -15 3 -17 25 -17 239 0 185 3 240
14 252 16 20 27 21 38 5z m1075 -105 c56 -59 88 -176 88 -322 0 -100 19 -191
55 -260 23 -46 45 -73 45 -54 0 4 -14 44 -31 88 -28 70 -33 98 -40 220 -4 77
-13 157 -20 178 -10 30 -10 40 0 50 10 9 17 7 33 -13 39 -47 127 -245 162
-365 19 -66 47 -158 61 -205 23 -74 29 -117 41 -340 20 -352 24 -400 34 -400
5 0 6 60 3 133 -4 93 -3 136 5 141 15 9 28 -20 35 -80 3 -28 13 -66 22 -85 15
-32 15 -37 -1 -79 -9 -25 -20 -76 -23 -115 -7 -77 -25 -95 -56 -53 -73 103
-83 127 -90 226 -5 67 -16 123 -36 181 -27 77 -29 91 -23 170 l7 86 -52 60
c-38 46 -53 73 -62 113 -9 47 -16 57 -64 92 -76 56 -101 105 -114 215 -10 91
-40 178 -82 234 -22 30 -17 61 11 61 21 0 34 -15 47 -54 5 -17 15 -32 21 -34
19 -6 14 12 -13 52 -53 78 -66 125 -49 170 10 26 57 19 86 -11z m-647 -173 c4
-6 -20 -59 -52 -118 -74 -135 -163 -316 -163 -329 0 -5 -8 -17 -19 -27 -29
-26 -38 -4 -52 119 -11 106 -38 193 -47 152 -2 -9 3 -40 12 -69 8 -28 12 -56
9 -61 -3 -5 -23 -6 -44 -3 -48 8 -49 -2 -4 -31 71 -47 99 -164 67 -283 -17
-64 -17 -65 -57 -72 -22 -3 -57 -9 -77 -13 -42 -8 -68 5 -68 36 0 10 14 46 31
79 40 78 47 148 24 226 -10 32 -17 72 -16 87 1 28 29 88 53 117 29 34 158 111
223 134 39 13 89 33 110 44 45 24 61 26 70 12z m980 -256 c25 -10 115 -144
115 -171 0 -13 13 -48 29 -78 34 -63 45 -112 62 -275 26 -241 22 -286 -24
-314 -27 -17 -37 8 -37 91 0 66 -12 101 -23 71 -11 -31 -28 14 -37 96 -9 86
-6 116 10 116 16 0 22 -21 30 -93 7 -66 7 -68 9 -21 1 51 -9 116 -35 235 -11
50 -20 68 -34 72 -11 3 -22 17 -25 33 -3 16 -18 63 -32 104 -26 76 -40 140
-30 140 3 0 13 -3 22 -6z m-1442 -145 c13 -51 3 -128 -24 -184 -28 -58 -52
-66 -57 -18 -3 30 32 215 44 235 11 17 28 2 37 -33z m621 -65 c36 -14 -3 -74
-47 -74 -13 0 -34 -11 -47 -25 -26 -28 -42 -31 -59 -11 -17 20 18 59 81 90 60
30 52 28 72 20z m-415 -272 c10 -19 5 -55 -28 -180 -40 -152 -81 -499 -81
-680 0 -51 -5 -103 -11 -115 -9 -16 -9 -22 0 -25 17 -6 13 -39 -5 -46 -21 -8
-45 11 -37 30 3 8 0 21 -7 30 -34 40 26 610 86 819 7 28 18 74 24 104 14 75
38 102 59 63z m-395 2 c35 -13 37 -40 17 -152 -11 -59 -25 -150 -31 -202 -11
-96 -19 -118 -39 -106 -14 9 -14 169 -1 329 12 143 14 147 54 131z m114 -26
c17 -17 15 -79 -5 -173 -13 -64 -16 -137 -16 -370 0 -317 4 -369 59 -646 37
-185 38 -219 10 -219 -29 0 -45 45 -70 190 -49 285 -70 471 -57 505 15 42 14
45 -9 45 -16 0 -20 7 -21 33 -6 121 22 430 46 517 8 30 15 69 15 86 0 44 22
58 48 32z m-182 -65 c-31 -336 -12 -536 102 -1080 22 -106 48 -216 57 -244 16
-48 16 -52 0 -68 -15 -15 -18 -14 -36 8 -10 13 -19 31 -19 41 0 9 -9 29 -21
44 -24 30 -79 167 -79 197 0 10 -6 19 -14 19 -7 0 -19 7 -26 15 -10 12 -10 18
0 30 7 8 16 12 21 9 16 -10 9 74 -8 105 -10 17 -21 31 -24 31 -3 0 -4 10 -2
23 2 12 -5 103 -16 202 -27 234 -28 445 -2 599 11 64 23 121 26 126 3 6 16 10
27 10 20 0 20 -4 14 -67z m364 42 c11 -13 9 -30 -8 -93 -50 -186 -92 -518
-100 -797 -6 -186 -9 -220 -22 -220 -30 0 -43 147 -44 485 0 243 4 344 17 442
9 69 19 133 22 140 6 16 81 56 106 57 9 1 22 -6 29 -14z m-537 -197 c3 -7 2
-132 -1 -278 -3 -184 -1 -291 7 -348 15 -104 59 -259 107 -377 28 -69 34 -93
25 -107 -8 -13 0 -38 39 -120 48 -100 59 -141 41 -152 -4 -3 -16 2 -24 12 -21
23 -123 237 -133 277 -4 17 -15 46 -25 66 -10 20 -37 101 -60 180 l-42 144 -5
210 c-5 262 22 505 57 505 5 0 11 -6 14 -12z m51 -190 c3 -7 7 -124 10 -260 5
-208 4 -248 -8 -248 -7 0 -17 12 -20 28 -10 39 -20 435 -12 466 7 27 24 35 30
14z m446 -727 c1 -56 3 -72 11 -58 16 27 36 20 43 -14 15 -76 1 -114 -31 -87
-15 12 -16 10 -10 -12 4 -14 7 -29 7 -34 0 -5 7 -3 15 4 12 10 19 10 28 1 9
-9 5 -18 -17 -38 -27 -25 -28 -29 -23 -91 4 -37 2 -72 -4 -83 -11 -22 -44 -25
-52 -5 -3 7 -9 120 -13 250 -5 185 -4 239 6 251 25 30 40 -1 40 -84z m148 -29
c4 -28 -24 -41 -44 -20 -20 20 -7 50 20 46 13 -2 22 -12 24 -26z m192 -91 c0
-10 -7 -38 -15 -61 -8 -23 -15 -62 -15 -87 0 -47 -18 -65 -45 -43 -20 17 -19
50 4 111 33 85 71 128 71 80z m-169 -73 c12 -48 7 -68 -20 -68 -25 0 -44 60
-31 96 13 34 37 20 51 -28z m59 -74 c3 -16 14 -47 26 -69 30 -57 37 -90 20
-104 -18 -15 -42 8 -67 67 -19 43 -26 122 -12 136 13 13 28 -1 33 -30z m-104
-89 c43 -85 39 -108 -15 -85 -22 9 -34 24 -45 58 -22 64 -21 102 3 102 14 0
30 -21 57 -75z m271 19 c2 -59 -10 -78 -39 -63 -17 9 -19 18 -15 50 11 81 51
91 54 13z m-600 -86 c17 -33 7 -60 -21 -56 -23 3 -43 46 -33 73 10 24 40 15
54 -17z m-138 -14 c27 -34 26 -49 -1 -68 -28 -20 -33 -20 -52 0 -17 16 -13 56
7 82 14 18 23 15 46 -14z m219 3 c2 -10 -3 -17 -12 -17 -18 0 -29 16 -21 31 9
14 29 6 33 -14z m-383 -42 c0 -23 -5 -31 -22 -33 -14 -2 -26 4 -32 17 -16 30
-3 53 28 49 22 -2 26 -8 26 -33z m1055 -10 c0 -21 -19 -28 -36 -15 -10 9 -11
16 -3 26 12 15 39 8 39 -11z m240 -40 c18 -21 5 -45 -25 -45 -27 0 -41 20 -31
45 7 19 40 19 56 0z m-1110 -54 c0 -21 -26 -36 -36 -20 -9 15 3 39 21 39 8 0
15 -9 15 -19z m284 3 c19 -19 20 -36 4 -52 -19 -19 -37 -14 -50 13 -8 19 -8
28 2 40 16 19 25 19 44 -1z m263 -25 c16 -16 5 -39 -18 -39 -12 0 -19 7 -19
18 0 31 17 41 37 21z m-609 -34 c5 -48 -19 -110 -43 -110 -17 0 -20 6 -19 41
0 23 6 56 14 73 16 40 44 38 48 -4z m691 4 c21 -61 8 -105 -24 -79 -18 15 -38
77 -31 95 10 27 43 17 55 -16z m369 19 c19 -19 15 -60 -4 -56 -23 4 -39 32
-31 52 8 19 19 20 35 4z m-1148 -37 c0 -38 -28 -75 -45 -61 -15 12 -10 65 7
87 15 19 38 3 38 -26z m198 -48 c-8 -95 -58 -112 -58 -19 0 63 23 104 47 84
11 -9 14 -26 11 -65z m1061 14 c20 -59 -13 -92 -43 -44 -23 36 -29 67 -16 82
17 21 46 2 59 -38z m-1341 -58 c4 -32 -24 -47 -46 -26 -11 12 -12 19 -2 36 15
29 44 23 48 -10z m340 19 c13 -13 16 -56 6 -82 -9 -23 -51 -20 -59 3 -6 21 19
91 32 91 5 0 14 -5 21 -12z m-485 -43 c-3 -45 -28 -72 -50 -54 -17 15 -16 33
3 70 23 45 50 35 47 -16z m765 3 c5 -7 13 -40 16 -73 4 -33 18 -112 31 -175
26 -126 45 -248 45 -283 0 -20 57 -83 67 -74 6 7 -17 275 -33 382 -9 55 -18
116 -21 135 -6 45 18 73 43 48 17 -16 55 -265 70 -448 6 -82 9 -91 17 -64 7
23 3 78 -12 193 -12 89 -19 166 -16 171 10 16 32 11 40 -7 15 -41 35 -160 47
-282 7 -72 16 -131 22 -131 16 0 -2 199 -30 325 -27 124 -33 243 -12 256 20
12 37 -2 42 -34 3 -18 21 -134 41 -260 20 -125 40 -280 46 -344 9 -115 13
-133 25 -120 12 12 -17 277 -47 439 -16 86 -29 168 -29 182 0 36 34 35 49 -1
20 -51 75 -364 91 -521 11 -113 7 -131 -38 -168 -32 -26 -22 -44 24 -44 49 0
56 25 44 153 -27 268 -64 477 -113 630 -20 62 -20 68 -5 84 27 26 42 4 71
-100 53 -186 94 -440 104 -630 3 -70 10 -130 16 -134 5 -3 16 2 25 10 13 14
13 18 0 39 -9 14 -18 61 -22 118 -9 121 -41 348 -67 465 -16 77 -17 91 -5 103
12 12 16 11 29 -9 9 -13 19 -42 22 -64 4 -22 16 -71 26 -110 48 -186 64 -338
64 -612 0 -257 0 -262 -23 -293 -26 -34 -27 -85 -2 -85 18 0 34 73 49 224 16
155 13 276 -10 460 -29 225 -29 225 -2 229 14 2 23 -3 27 -15 20 -64 48 -315
54 -483 6 -184 7 -189 13 -99 4 52 10 105 13 117 9 26 34 29 44 5 4 -10 16
-18 27 -18 23 0 31 -31 15 -55 -9 -13 -12 -13 -24 2 -11 15 -15 -1 -25 -115
-15 -165 -19 -180 -41 -174 -15 4 -18 -8 -22 -109 -5 -100 -9 -119 -35 -171
-17 -32 -40 -90 -52 -130 -22 -75 -37 -95 -52 -72 -13 20 -10 76 6 144 17 70
19 135 5 135 -5 0 -10 -13 -10 -29 0 -16 -7 -51 -15 -77 -8 -27 -32 -118 -54
-202 -44 -165 -86 -265 -113 -270 -26 -5 -23 30 12 122 16 43 34 113 40 155 7
42 18 103 26 136 16 70 17 95 5 95 -14 0 -21 -27 -32 -115 -20 -164 -55 -270
-77 -237 -11 16 22 302 44 385 25 91 32 137 24 137 -5 0 -11 -19 -15 -42 -4
-22 -17 -50 -29 -62 -20 -19 -24 -40 -39 -231 -19 -233 -44 -373 -79 -444 -25
-49 -51 -60 -56 -23 -2 13 8 71 22 130 31 131 48 261 36 282 -10 18 -16 -5
-24 -97 -7 -73 -32 -208 -46 -241 -22 -51 -30 -7 -30 156 0 220 -17 200 -23
-28 -5 -181 -18 -267 -43 -277 -8 -3 -17 -3 -19 -1 -3 2 -7 94 -9 204 -5 203
-11 254 -28 254 -6 0 -7 -25 -3 -68 5 -52 3 -71 -7 -80 -8 -6 -19 -7 -26 -3
-12 7 -44 111 -57 184 -6 38 -25 52 -25 18 0 -11 11 -68 25 -127 29 -119 29
-157 2 -162 -21 -4 -42 40 -60 130 -7 34 -18 63 -26 66 -10 4 -12 -4 -7 -34
14 -88 18 -184 9 -184 -18 0 -30 23 -53 100 -12 41 -26 80 -32 85 -15 15 -2
-42 38 -167 38 -120 45 -169 26 -175 -14 -5 -45 59 -102 214 -41 111 -71 166
-78 144 -2 -7 13 -49 33 -93 28 -58 35 -82 27 -90 -20 -20 -46 16 -121 160
-44 85 -83 146 -101 160 -17 13 -30 20 -30 15 0 -4 29 -60 65 -123 64 -113 70
-130 48 -137 -15 -5 -93 99 -130 172 -17 33 -45 84 -62 114 -25 42 -31 62 -27
86 4 20 -1 44 -14 70 -11 22 -20 53 -21 70 0 16 -4 39 -9 50 -7 18 -8 17 -15
-10 -4 -16 -10 -34 -12 -38 -10 -17 -32 16 -44 65 -9 33 -21 54 -34 60 -12 5
-29 33 -43 71 -109 295 -139 416 -149 604 -5 91 -4 103 12 109 24 10 31 -7 38
-89 12 -131 57 -328 99 -434 22 -57 45 -103 49 -103 14 0 11 25 -11 80 -11 28
-20 64 -20 81 0 16 -7 41 -16 54 -27 41 -36 131 -41 405 -3 217 -2 268 10 284
26 35 37 9 37 -87 0 -223 35 -491 79 -607 20 -53 69 -120 89 -120 16 0 16 3
-13 61 -26 50 -26 69 1 69 9 0 14 11 14 34 0 18 7 50 15 69 14 34 13 40 -5 88
-23 58 -40 197 -28 228 8 23 30 27 45 9 6 -7 15 -54 22 -104 6 -50 16 -105 22
-123 12 -35 35 -43 25 -8 -4 12 -16 70 -28 130 -16 86 -18 110 -8 122 15 18
34 19 48 2 6 -6 16 -50 22 -95 12 -88 26 -139 37 -129 3 4 -2 47 -12 97 -14
72 -15 93 -5 105 34 40 48 12 76 -152 9 -56 20 -107 25 -114 21 -35 18 12 -10
152 -36 176 -38 217 -14 226 26 10 53 -32 53 -86 0 -46 13 -81 25 -69 4 3 0
49 -9 102 -16 101 -9 162 20 173 29 11 44 -17 44 -83 0 -64 18 -212 27 -227 3
-5 9 -5 14 0 4 4 1 41 -7 82 -16 79 -9 106 21 81 8 -7 17 -11 19 -9 1 2 -1 69
-6 149 -5 80 -10 159 -11 175 -2 24 2 31 20 33 26 4 25 9 53 -183 11 -77 20
-188 20 -247 0 -127 18 -147 22 -26 2 68 6 83 20 86 14 3 18 -9 24 -67 3 -39
10 -71 15 -71 9 0 3 215 -7 232 -10 15 -43 250 -44 305 0 37 7 49 31 52 4 1
11 -5 17 -11z m746 -20 c24 -38 30 -92 12 -107 -24 -20 -44 -6 -56 38 -19 73
11 120 44 69z m-79 -8 c15 -24 32 -111 23 -116 -5 -4 -13 -2 -17 2 -12 13 -41
92 -41 109 0 17 25 20 35 5z m215 -4 c18 -23 8 -61 -17 -64 -17 -3 -24 3 -29
22 -12 48 18 75 46 42z m-1079 -51 c4 -17 7 -60 8 -97 1 -70 -12 -95 -35 -64
-14 20 -30 157 -20 182 10 25 40 12 47 -21z m132 -33 c2 -20 10 -63 16 -95 16
-76 11 -152 -9 -152 -12 0 -19 30 -34 137 -19 141 -17 180 8 159 8 -7 16 -28
19 -49z m155 28 c18 -50 26 -166 12 -175 -6 -4 -16 -3 -21 2 -12 12 -42 172
-35 189 9 24 34 15 44 -16z m1152 9 c0 -5 -4 -9 -10 -9 -5 0 -10 7 -10 16 0 8
5 12 10 9 6 -3 10 -10 10 -16z m-613 -39 c12 -25 30 -74 39 -109 14 -58 14
-65 0 -79 -24 -24 -41 -2 -71 98 -41 133 -42 142 -14 138 17 -2 31 -16 46 -48z
m-974 27 c3 -8 8 -59 12 -114 8 -111 0 -132 -39 -94 -17 18 -22 36 -25 106 -1
47 0 92 3 100 7 19 42 20 49 2z m1307 3 c0 -5 -4 -10 -10 -10 -5 0 -10 5 -10
10 0 6 5 10 10 10 6 0 10 -4 10 -10z m-1450 -153 c0 -115 -3 -158 -14 -172
-12 -17 -16 -18 -31 -5 -16 13 -17 30 -13 161 3 81 9 152 12 158 4 6 16 11 27
11 18 0 19 -8 19 -153z m221 123 c21 -74 3 -151 -30 -131 -14 9 -27 120 -17
146 9 24 39 14 47 -15z m1114 -67 c25 -86 29 -119 15 -128 -21 -13 -45 45 -57
138 -5 39 -3 47 10 47 10 0 21 -19 32 -57z m-1267 -51 c2 -76 0 -92 -12 -92
-22 0 -29 18 -37 84 -8 69 3 109 29 104 14 -3 17 -17 20 -96z m-156 50 c5 -18
7 -83 6 -145 -3 -106 -4 -112 -24 -115 -29 -4 -32 9 -40 148 -5 92 -4 123 6
135 20 24 43 14 52 -23z m1623 8 c8 -25 -1 -40 -25 -40 -20 0 -32 22 -24 45 9
22 42 18 49 -5z m-265 -10 c6 -11 14 -42 17 -69 4 -40 2 -49 -12 -55 -10 -4
-23 -2 -28 3 -14 14 -37 109 -30 126 8 22 41 18 53 -5z m147 -15 c13 -28 14
-37 3 -50 -7 -8 -16 -15 -21 -15 -15 0 -42 66 -36 84 11 27 36 18 54 -19z
m-2227 -14 c0 -23 -78 -93 -99 -89 -29 6 -22 30 21 68 47 44 78 52 78 21z
m361 -263 c-1 -171 2 -236 18 -327 20 -117 19 -136 -5 -145 -26 -10 -42 38
-58 171 -18 152 -20 299 -6 428 10 85 24 115 44 95 5 -5 8 -105 7 -222z m91
157 c-3 -74 -11 -91 -36 -82 -12 5 -16 21 -16 70 0 65 12 90 40 84 12 -2 14
-16 12 -72z m178 46 c5 -11 10 -62 10 -114 0 -75 -3 -97 -16 -108 -30 -25 -44
14 -44 126 0 56 3 105 7 108 12 13 32 7 43 -12z m1738 -34 c18 -21 26 -113 12
-122 -18 -11 -38 19 -46 71 -8 57 8 82 34 51z m191 -16 c9 -6 15 -27 15 -58 1
-42 -2 -48 -19 -48 -26 0 -50 67 -35 96 12 21 18 23 39 10z m-231 -78 c5 -10
12 -53 16 -96 6 -67 5 -78 -10 -84 -10 -4 -22 0 -29 11 -14 19 -30 160 -20
176 10 16 33 12 43 -7z m-261 -18 c5 -14 7 -14 23 0 34 30 46 -1 70 -185 17
-128 20 -174 11 -183 -21 -21 -30 6 -46 133 -15 117 -32 196 -41 188 -2 -3 6
-67 17 -143 23 -156 22 -230 -1 -230 -17 0 -21 14 -51 220 -11 83 -23 165 -26
183 -5 28 -2 32 16 32 12 0 24 -7 28 -15z m705 -12 c30 -35 31 -93 3 -93 -17
0 -55 48 -55 69 0 17 18 41 30 41 4 0 14 -8 22 -17z m-527 -18 c3 -14 7 -35
10 -48 2 -13 -2 -33 -10 -44 -13 -19 -13 -33 1 -125 35 -223 26 -449 -27 -708
-21 -100 -31 -122 -51 -102 -8 8 -9 24 0 64 6 29 14 78 17 108 9 80 -10 42
-25 -50 -6 -41 -19 -106 -27 -143 -14 -63 -14 -69 2 -81 22 -16 11 -56 -14
-56 -15 0 -20 11 -25 52 -4 28 -13 63 -21 77 -15 30 -13 46 26 196 15 61 31
133 34 160 10 73 14 85 35 85 10 0 21 7 24 16 11 30 6 263 -9 394 -14 119 -14
135 0 156 8 13 15 32 15 42 0 39 37 45 45 7z m-807 -23 c2 -23 -1 -32 -12 -32
-21 0 -29 17 -22 46 9 34 30 25 34 -14z m957 -32 c0 -22 -29 -18 -33 3 -3 14
1 18 15 15 10 -2 18 -10 18 -18z m-2201 -26 c10 -25 7 -81 -6 -109 -13 -28
-33 -33 -42 -9 -10 25 -7 93 4 115 13 23 36 25 44 3z m454 -6 c7 -7 12 -24 12
-39 0 -15 11 -69 24 -120 26 -99 23 -122 -15 -134 -34 -11 -47 13 -64 122 -19
129 -19 148 1 167 19 19 26 20 42 4z m1947 -58 c0 -22 -29 -18 -33 3 -3 14 1
18 15 15 10 -2 18 -10 18 -18z m-2317 -29 c2 -13 -1 -28 -8 -35 -16 -15 -40
18 -33 45 7 27 37 20 41 -10z m-278 -45 c0 -13 -7 -29 -16 -36 -21 -18 -49 9
-39 39 10 31 55 29 55 -3z m2345 -16 c8 -13 -4 -50 -16 -50 -13 0 -22 27 -15
45 6 17 22 20 31 5z m123 -17 c-5 -25 -28 -28 -28 -4 0 12 6 21 16 21 9 0 14
-7 12 -17z m-2278 -34 c4 -13 12 -82 19 -154 13 -142 57 -351 102 -484 16 -46
29 -93 29 -103 0 -24 -28 -35 -45 -17 -22 23 -72 180 -99 310 -26 130 -54 433
-43 463 9 24 29 16 37 -15z m2226 4 c3 -16 8 -34 10 -41 2 -8 1 -24 -2 -38 -7
-28 -41 -33 -51 -8 -4 12 -9 9 -19 -15 -15 -36 -29 -39 -44 -11 -12 23 0 82
18 88 7 2 16 -7 21 -20 9 -22 10 -21 10 9 1 45 10 63 32 63 12 0 21 -9 25 -27z
m-2130 6 c10 -17 -13 -36 -27 -22 -12 12 -4 33 11 33 5 0 12 -5 16 -11z m2264
-110 c0 -59 -3 -70 -22 -83 -19 -13 -25 -14 -36 -2 -11 11 -11 24 1 84 18 86
24 97 43 81 10 -8 14 -33 14 -80z m115 21 c0 -48 -2 -55 -20 -55 -16 0 -21 8
-23 44 -4 54 3 73 25 69 15 -3 18 -14 18 -58z m-2687 38 c6 -7 13 -67 17 -133
3 -66 11 -151 16 -189 8 -57 7 -72 -5 -84 -12 -12 -16 -11 -29 9 -31 48 -61
366 -37 394 15 18 24 19 38 3z m136 -10 c3 -13 12 -90 21 -173 9 -82 23 -185
31 -228 15 -77 73 -256 101 -310 18 -36 11 -57 -21 -57 -18 0 -30 9 -39 28
-33 63 -88 256 -108 372 -21 124 -31 339 -17 373 10 24 27 21 32 -5z m2822
-13 c7 -28 0 -55 -15 -55 -16 0 -44 48 -37 65 9 25 45 18 52 -10z m-3030 -111
c12 -28 12 -39 3 -50 -18 -22 -39 2 -39 47 0 49 16 50 36 3z m2819 -61 c0 -86
-10 -111 -41 -99 -15 6 -16 16 -10 82 8 90 14 106 35 102 13 -3 16 -18 16 -85z
m-304 -17 c1 -48 3 -54 8 -27 7 42 28 52 36 18 7 -25 4 -52 -33 -319 -17 -127
-31 -163 -53 -141 -9 9 -8 33 5 95 9 46 15 99 15 118 -1 26 -3 29 -6 10 -15
-95 -42 -192 -85 -303 -41 -107 -54 -130 -79 -142 -16 -9 -29 -23 -29 -33 0
-10 -7 -28 -17 -41 -9 -13 -35 -63 -58 -110 -43 -88 -66 -118 -85 -106 -17 11
-12 26 60 171 46 95 75 143 88 146 13 4 26 24 37 59 10 30 35 97 56 149 20 52
40 122 44 155 4 33 11 76 17 95 6 19 13 86 17 148 5 80 11 116 20 122 29 17
41 -1 42 -64z m-83 27 c-4 -22 -22 -20 -26 1 -2 10 3 16 13 16 10 0 15 -7 13
-17z m-2060 -18 c15 -33 15 -62 0 -71 -16 -10 -38 25 -38 63 0 40 22 44 38 8z
m2260 13 c8 -8 10 -39 6 -102 -6 -81 -5 -89 8 -72 32 41 65 -7 34 -50 -12 -16
-18 -17 -34 -7 -19 11 -20 8 -26 -55 -16 -153 -44 -237 -74 -218 -16 10 -15
65 3 158 8 42 19 136 25 209 6 73 13 136 16 141 7 12 28 10 42 -4z m-2124 -30
c20 -31 46 -137 46 -187 0 -34 3 -41 19 -41 11 0 29 -16 43 -36 31 -50 103
-179 129 -234 75 -159 105 -216 165 -310 95 -149 100 -158 91 -167 -4 -4 -16
-3 -25 3 -29 18 -171 223 -182 263 -5 21 -32 76 -60 122 -27 46 -53 99 -56
117 -4 18 -14 37 -24 42 -9 5 -36 50 -60 100 -24 49 -47 90 -52 90 -12 0 -10
-9 14 -77 12 -34 19 -65 15 -70 -18 -17 -44 19 -75 100 -27 72 -30 90 -20 106
10 16 8 35 -6 96 -10 41 -15 82 -12 90 8 22 34 18 50 -7z m-579 -18 c3 -5 11
-48 17 -95 10 -73 10 -88 -3 -100 -13 -13 -17 -13 -34 -1 -16 12 -20 29 -23
95 -2 45 -2 88 2 96 6 17 32 20 41 5z m-161 -26 c10 -27 7 -102 -6 -110 -18
-11 -38 26 -38 71 0 23 3 45 7 48 11 12 31 7 37 -9z m241 -34 c7 -23 -1 -40
-20 -40 -13 0 -25 21 -25 46 0 22 38 17 45 -6z m2880 -70 c-9 -81 -35 -230
-47 -267 -12 -40 -45 -45 -54 -9 -8 33 52 347 68 357 24 16 39 -21 33 -81z
m-472 -20 c-5 -155 -44 -273 -80 -237 -11 11 -11 22 1 62 8 28 19 82 26 120
16 95 30 137 43 132 8 -3 11 -29 10 -77z m525 -22 c-3 -95 -4 -103 -23 -103
-19 0 -20 6 -17 80 3 101 9 125 28 125 12 0 14 -16 12 -102z m-2514 -11 c15
-45 44 -114 63 -154 38 -74 38 -103 3 -103 -17 0 -29 16 -55 74 -57 126 -89
249 -69 269 15 15 33 -11 58 -86z m-753 -120 c10 -70 27 -163 38 -207 12 -44
19 -85 16 -90 -10 -16 -43 -11 -49 8 -6 20 -40 199 -56 291 -14 79 -6 134 18
129 14 -3 20 -27 33 -131z m97 101 c15 -15 16 -174 1 -184 -21 -13 -39 22 -45
93 -4 39 -4 79 -1 87 8 19 28 21 45 4z m271 -20 c5 -13 19 -74 31 -137 12 -63
31 -137 41 -164 20 -49 19 -77 0 -77 -18 0 -40 44 -67 135 -53 182 -63 228
-53 247 13 25 38 23 48 -4z m104 -86 c19 -77 18 -102 -7 -102 -10 0 -22 23
-36 66 -28 92 -26 119 9 112 10 -2 22 -30 34 -76z m-185 26 c6 -7 22 -56 37
-108 33 -117 112 -326 137 -361 10 -15 31 -54 46 -87 16 -33 41 -75 56 -92 29
-35 30 -53 2 -58 -23 -5 -43 13 -51 46 -3 14 -21 47 -40 72 -72 98 -200 399
-230 538 -10 46 18 79 43 50z m252 -49 c0 -16 -4 -29 -9 -29 -13 0 -34 57 -26
70 11 18 35 -9 35 -41z m2498 -8 c4 -63 -19 -111 -44 -90 -32 26 -6 158 29
146 7 -2 13 -27 15 -56z m-2826 -13 c9 -7 21 -41 26 -76 6 -34 41 -133 77
-219 46 -109 63 -159 56 -166 -19 -19 -61 34 -117 148 -75 155 -114 305 -81
318 19 8 22 8 39 -5z m320 -158 c43 -86 49 -130 18 -130 -34 0 -108 150 -94
192 11 36 39 14 76 -62z m382 -12 c21 -37 36 -75 32 -83 -11 -30 -42 -15 -78
38 -49 73 -50 75 -43 98 13 39 47 19 89 -53z m67 51 c9 -17 8 -25 -5 -37 -12
-13 -18 -13 -30 -2 -16 13 -21 42 -9 53 13 13 32 7 44 -14z m-811 -82 c52
-146 128 -295 221 -435 52 -77 58 -96 33 -106 -34 -13 -146 150 -230 334 -90
200 -111 272 -81 283 20 7 33 -10 57 -76z m2470 50 c0 -32 -23 -77 -39 -77
-18 0 -18 29 -1 68 23 50 40 54 40 9z m354 -2 c8 -22 -13 -117 -32 -137 -26
-30 -42 -22 -42 21 0 86 53 170 74 116z m-2169 -59 c18 -28 43 -60 55 -71 12
-11 43 -55 67 -98 36 -61 88 -122 241 -278 179 -184 194 -201 179 -216 -14
-15 -18 -15 -43 2 -41 26 -369 360 -421 427 -56 73 -153 237 -153 258 0 20 20
41 32 33 6 -3 24 -28 43 -57z m1980 54 c10 -16 -127 -322 -163 -362 -20 -24
-42 -23 -42 2 0 11 25 68 55 127 30 60 61 128 70 153 27 77 61 111 80 80z m59
-32 c-1 -19 -18 -69 -38 -111 -34 -70 -56 -92 -70 -68 -8 12 53 181 72 204 22
25 37 15 36 -25z m-2254 12 c0 -5 -4 -10 -10 -10 -5 0 -10 5 -10 10 0 6 5 10
10 10 6 0 10 -4 10 -10z m2512 -35 c-4 -47 -42 -143 -60 -150 -32 -12 -36 13
-12 92 28 96 27 95 53 91 18 -2 21 -9 19 -33z m-2092 6 c17 -32 12 -61 -9 -61
-20 0 -46 54 -35 71 9 15 33 10 44 -10z m1457 -17 c6 -15 -29 -113 -75 -211
-16 -36 -30 -53 -43 -53 -33 0 -31 20 15 118 25 54 46 103 46 108 0 15 30 54
41 54 5 0 12 -7 16 -16z m543 6 c0 -5 -4 -10 -10 -10 -5 0 -10 5 -10 10 0 6 5
10 10 10 6 0 10 -4 10 -10z m-2290 -30 c10 -10 30 -41 44 -67 42 -83 211 -292
351 -433 48 -48 56 -70 27 -70 -24 0 -66 38 -199 182 -96 103 -262 319 -279
362 -6 17 11 46 27 46 5 0 18 -9 29 -20z m-257 -25 c8 -18 -11 -31 -25 -17
-11 11 -3 32 12 32 4 0 10 -7 13 -15z m217 -77 c19 -35 46 -83 62 -107 33 -53
34 -61 9 -61 -24 0 -57 43 -105 136 -41 80 -44 94 -17 94 12 0 29 -20 51 -62z
m365 -5 c48 -72 165 -218 275 -343 44 -50 80 -97 80 -105 0 -49 -90 29 -271
235 -90 103 -109 130 -109 152 0 10 -12 36 -26 58 -26 39 -27 76 -1 68 6 -3
30 -32 52 -65z m-428 -29 c20 -41 43 -80 50 -86 7 -6 13 -19 13 -30 0 -31 -42
-19 -61 17 -8 17 -29 52 -47 79 -30 47 -40 85 -26 99 14 14 36 -10 71 -79z
m-52 -64 c34 -58 72 -122 84 -142 20 -34 21 -39 7 -44 -24 -9 -50 18 -127 135
-64 96 -80 137 -62 155 18 18 41 -7 98 -104z m2400 64 c0 -24 -4 -29 -25 -29
-30 0 -38 26 -14 49 23 23 39 15 39 -20z m-65 -28 c0 -12 -25 -74 -55 -135
-48 -98 -58 -112 -78 -109 -29 4 -26 36 10 103 15 28 40 76 55 108 21 40 35
57 49 57 13 0 19 -7 19 -24z m-483 -92 c7 -19 -30 -59 -46 -50 -12 8 -15 49
-4 59 12 13 44 7 50 -9z m268 -34 c0 -29 -29 -50 -46 -33 -9 9 -8 18 5 38 20
31 41 28 41 -5z m-1971 -7 c8 -19 -8 -38 -23 -29 -16 10 -13 46 3 46 8 0 17
-8 20 -17z m1595 -27 c23 -27 -23 -78 -47 -54 -16 16 -15 28 5 50 19 22 27 22
42 4z m-1354 -112 c86 -78 113 -114 84 -114 -32 0 -209 154 -209 183 0 33 31
16 125 -69z m404 40 c21 -27 20 -44 -4 -44 -16 0 -45 38 -45 57 0 22 27 14 49
-13z m1071 11 c10 -12 3 -27 -35 -85 -31 -46 -53 -70 -66 -70 -29 0 -24 34 13
88 57 86 66 93 88 67z m-634 -29 c7 -31 -1 -46 -26 -46 -21 0 -37 40 -25 59
12 21 44 12 51 -13z m812 -20 c-2 -13 -10 -21 -23 -21 -23 0 -33 34 -14 45 20
13 40 -1 37 -24z m-1892 3 c10 -17 -13 -36 -27 -22 -12 12 -4 33 11 33 5 0 12
-5 16 -11z m945 -43 c26 -59 30 -119 8 -124 -26 -5 -56 86 -50 156 2 26 23 10
42 -32z m-764 -14 c32 -26 84 -67 116 -91 61 -47 76 -81 33 -81 -38 0 -253
190 -240 212 11 17 35 6 91 -40z m-83 -33 c25 -28 46 -57 46 -65 0 -29 -39
-12 -84 36 -46 49 -52 61 -39 73 15 15 33 5 77 -44z m1400 -31 c-20 -36 -36
-54 -51 -56 -30 -4 -30 16 2 77 27 54 43 65 64 46 11 -11 9 -22 -15 -67z
m-1862 40 c23 -19 29 -45 13 -58 -20 -17 -55 5 -55 34 0 36 15 45 42 24z m308
-23 c7 -8 21 -15 32 -15 11 0 45 -21 75 -47 30 -26 98 -76 151 -112 91 -62
125 -101 87 -101 -45 0 -207 106 -299 195 -25 24 -53 45 -63 47 -22 4 -31 48
-10 48 8 0 20 -7 27 -15z m1274 -41 c-1 -64 -12 -94 -34 -94 -16 0 -20 7 -20
35 0 46 26 108 42 102 8 -2 13 -20 12 -43z m376 11 c0 -8 -4 -15 -9 -15 -13 0
-22 16 -14 24 11 11 23 6 23 -9z m-1776 -75 c56 -59 63 -80 26 -80 -29 0 -135
103 -127 123 12 31 43 18 101 -43z m933 25 c34 -34 39 -55 15 -63 -19 -6 -86
63 -79 81 10 25 25 21 64 -18z m-821 -19 c38 -38 44 -66 14 -66 -26 0 -90 57
-90 81 0 30 38 23 76 -15z m1624 24 c0 -5 -7 -10 -15 -10 -8 0 -15 5 -15 10 0
6 7 10 15 10 8 0 15 -4 15 -10z m-822 -73 c26 -24 29 -57 5 -57 -42 0 -100 70
-77 93 8 8 42 -9 72 -36z m22 -123 c11 -12 11 -18 -2 -30 -12 -13 -20 -14 -37
-5 -21 12 -27 31 -14 44 11 12 40 7 53 -9z m290 -19 c0 -8 -7 -15 -15 -15 -8
0 -15 7 -15 15 0 8 7 15 15 15 8 0 15 -7 15 -15z m98 -23 c2 -7 -6 -12 -17
-12 -21 0 -27 11 -14 24 9 9 26 2 31 -12z m88 -7 c4 -8 2 -21 -4 -28 -6 -6
-12 -23 -14 -37 -2 -16 -10 -26 -24 -28 -44 -6 -58 54 -15 65 11 3 21 13 24
24 6 23 25 25 33 4z m-218 -43 c-5 -24 -52 -23 -56 2 -2 10 2 22 9 27 18 11
51 -9 47 -29z m-258 3 c35 -18 50 -43 50 -82 0 -34 -34 -93 -54 -93 -26 0 -54
49 -61 105 -11 86 4 102 65 70z m302 -172 c25 -22 24 -63 -1 -63 -12 0 -23 11
-30 31 -16 47 -2 62 31 32z m253 -265 c49 -57 68 -102 53 -130 -32 -64 -138
50 -138 148 0 51 29 45 85 -18z m-186 8 c15 -18 3 -46 -19 -46 -10 0 -21 7
-24 16 -6 16 9 44 24 44 4 0 13 -6 19 -14z m32 -153 c0 -5 3 -26 6 -48 11 -75
5 -177 -10 -193 -8 -8 -19 -12 -25 -8 -12 7 -22 205 -11 234 8 20 38 32 40 15z
m-35 -767 c11 -45 1 -71 -26 -71 -27 0 -37 26 -26 71 8 32 44 32 52 0z m-32
-122 c8 -20 -20 -74 -38 -74 -16 0 -27 24 -21 45 3 8 7 22 10 30 6 20 41 19
49 -1z m-60 -120 c20 -8 21 -38 1 -54 -29 -24 -60 21 -33 48 14 14 12 14 32 6z
m-54 -153 c0 -27 -18 -72 -37 -93 -32 -36 -57 7 -32 55 28 54 69 76 69 38z
m-137 -247 c10 -10 -13 -61 -39 -85 -47 -44 -60 19 -14 69 20 21 41 28 53 16z
m-111 -224 c-6 -54 -52 -107 -52 -61 0 34 28 93 42 88 7 -2 12 -14 10 -27z"/>
<path d="M3343 11565 c-7 -33 -15 -103 -17 -155 l-5 -95 20 130 c21 140 22
222 2 120z"/>
<path d="M3227 10890 c-29 -201 -31 -325 -7 -530 l7 -65 1 73 c2 54 5 72 16
72 22 0 36 -55 37 -144 0 -65 2 -76 10 -56 7 17 7 55 0 117 -6 50 -12 120 -12
155 -1 49 -3 55 -8 29 -8 -43 -25 -50 -45 -18 -15 21 -15 40 0 206 15 170 15
262 1 161z"/>
<path d="M4641 12097 c-7 -20 -11 -43 -8 -50 2 -6 9 5 16 26 7 20 11 43 8 50
-2 6 -9 -5 -16 -26z"/>
<path d="M4335 12050 c-20 -39 -36 -80 -30 -80 5 0 31 49 45 85 13 34 4 31
-15 -5z"/>
<path d="M4240 11779 c-6 -24 -18 -70 -27 -101 -22 -80 -13 -315 11 -287 1 2
-2 39 -7 81 -7 55 -7 93 1 130 35 163 49 282 22 177z"/>
<path d="M4457 11803 c-8 -14 -37 -116 -37 -132 0 -31 19 5 35 68 14 57 15 86
2 64z"/>
<path d="M4657 11270 c-4 -14 -6 -38 -6 -55 1 -27 2 -26 10 10 11 45 7 85 -4
45z"/>
<path d="M4491 11155 c-15 -50 -26 -239 -12 -210 5 11 10 41 10 66 1 25 6 71
12 103 13 70 6 96 -10 41z"/>
<path d="M4171 10834 c0 -11 3 -14 6 -6 3 7 2 16 -1 19 -3 4 -6 -2 -5 -13z"/>
<path d="M4040 10718 c0 -23 11 -48 21 -48 14 0 11 24 -6 46 -12 16 -14 17
-15 2z"/>
<path d="M4535 10650 c-3 -5 1 -10 9 -10 8 0 18 5 21 10 3 6 -1 10 -9 10 -8 0
-18 -4 -21 -10z"/>
<path d="M3919 10445 c-4 -5 -14 -46 -23 -90 -9 -44 -18 -88 -20 -97 -2 -10
-1 -18 4 -18 11 0 52 162 48 191 -1 13 -6 20 -9 14z"/>
<path d="M3956 10303 c-46 -155 -66 -246 -47 -213 12 20 62 222 57 227 -2 3
-7 -4 -10 -14z"/>
<path d="M4008 10275 c-10 -29 -58 -269 -58 -290 0 -10 2 -16 4 -14 10 10 67
274 64 298 -3 23 -4 24 -10 6z"/>
<path d="M4660 10120 c-23 -45 -40 -89 -38 -98 2 -8 23 26 47 77 24 50 41 94
38 97 -3 4 -24 -31 -47 -76z"/>
<path d="M3720 10155 c0 -8 5 -15 10 -15 6 0 10 7 10 15 0 8 -4 15 -10 15 -5
0 -10 -7 -10 -15z"/>
<path d="M4716 10052 c-11 -23 -17 -45 -13 -48 8 -9 39 55 35 74 -2 10 -10 0
-22 -26z"/>
<path d="M4010 10009 c-6 -24 -18 -66 -26 -93 -16 -57 -18 -78 -4 -55 12 21
51 181 45 187 -2 2 -9 -16 -15 -39z"/>
<path d="M4512 9896 c-58 -75 -64 -100 -11 -49 53 51 87 103 67 103 -7 0 -32
-24 -56 -54z"/>
<path d="M4309 9860 c-9 -14 -46 -82 -81 -151 -36 -70 -98 -181 -138 -248 -74
-124 -90 -169 -30 -83 83 117 112 166 180 297 40 77 77 145 82 152 5 7 8 22 6
35 l-3 23 -16 -25z"/>
<path d="M3578 9850 c-15 -59 -20 -120 -10 -120 11 0 26 95 20 126 -3 16 -5
15 -10 -6z"/>
<path d="M4142 9723 c-10 -16 -44 -71 -74 -123 -87 -149 -169 -282 -197 -319
-22 -29 -23 -33 -6 -24 35 19 60 55 167 238 58 99 115 197 127 218 26 43 12
51 -17 10z"/>
<path d="M4337 9683 c-50 -82 -89 -154 -84 -159 5 -6 47 56 101 149 33 55 17
64 -17 10z"/>
<path d="M3670 9646 c0 -3 -9 -53 -21 -112 -11 -58 -18 -108 -16 -110 2 -2 14
33 25 78 32 122 36 148 23 148 -6 0 -11 -2 -11 -4z"/>
<path d="M3700 9478 c-6 -24 -20 -74 -30 -112 -23 -83 -10 -76 19 10 28 84 41
144 30 144 -4 0 -13 -19 -19 -42z"/>
<path d="M3276 9399 c-9 -29 -21 -105 -26 -168 -5 -64 -12 -141 -15 -171 -4
-42 -3 -51 5 -37 6 9 16 70 21 135 6 64 17 155 25 201 8 46 13 86 10 88 -3 3
-12 -19 -20 -48z"/>
<path d="M4076 9051 c-3 -5 0 -11 8 -14 15 -6 26 1 26 15 0 11 -27 10 -34 -1z"/>
<path d="M3750 8964 c-66 -81 -170 -226 -170 -239 0 -18 23 3 60 56 23 34 66
89 94 123 83 98 108 134 97 140 -5 4 -42 -33 -81 -80z"/>
<path d="M3820 8869 c-29 -33 -50 -63 -47 -66 7 -6 127 106 127 119 0 23 -32
2 -80 -53z"/>
<path d="M3396 8437 c-15 -19 -26 -40 -26 -47 0 -16 78 51 79 68 2 23 -28 12
-53 -21z"/>
<path d="M1660 8791 c0 -5 24 -14 53 -21 28 -7 65 -21 81 -32 19 -14 27 -16
24 -7 -9 32 -158 88 -158 60z"/>
<path d="M1911 8598 c19 -35 72 -99 77 -93 7 7 -68 115 -80 115 -5 0 -3 -10 3
-22z"/>
<path d="M2486 8263 c-9 -9 -7 -33 3 -33 12 0 22 28 12 34 -5 3 -11 3 -15 -1z"/>
<path d="M2140 8193 c0 -14 83 -174 87 -169 8 8 -47 141 -66 160 -12 11 -21
15 -21 9z"/>
<path d="M2510 8015 c0 -10 60 -105 67 -105 5 0 -44 89 -58 105 -5 5 -9 5 -9
0z"/>
<path d="M2160 7857 c18 -18 80 -30 98 -18 18 11 3 17 -64 26 -44 6 -47 6 -34
-8z"/>
<path d="M2765 7790 c-3 -5 -2 -10 4 -10 5 0 13 5 16 10 3 6 2 10 -4 10 -5 0
-13 -4 -16 -10z"/>
<path d="M2870 7672 c0 -5 7 -17 15 -28 15 -19 20 -8 9 20 -6 17 -24 22 -24 8z"/>
<path d="M2820 7625 c0 -3 12 -29 26 -57 23 -46 25 -55 14 -87 -47 -142 -45
-151 9 -47 39 73 39 99 1 143 -16 18 -30 38 -30 43 0 6 -4 10 -10 10 -5 0 -10
-2 -10 -5z"/>
<path d="M2292 7604 c1 -9 9 -19 16 -22 9 -3 13 2 10 14 -1 9 -9 19 -16 22 -9
3 -13 -2 -10 -14z"/>
<path d="M2480 7329 c-14 -6 -40 -8 -57 -5 -23 3 -33 1 -33 -9 0 -30 91 -24
135 10 20 14 20 14 0 14 -11 0 -31 -5 -45 -10z"/>
<path d="M3945 8210 c-3 -5 5 -16 17 -24 27 -20 38 -20 38 -3 0 17 -47 40 -55
27z"/>
<path d="M3717 7374 c-8 -8 1 -24 14 -24 5 0 9 7 9 15 0 15 -12 20 -23 9z"/>
<path d="M3517 7364 c-4 -4 -7 -14 -7 -23 0 -11 3 -12 11 -4 6 6 10 16 7 23
-2 6 -7 8 -11 4z"/>
<path d="M4370 8471 c0 -17 47 -81 61 -81 18 0 9 21 -26 58 -19 20 -35 31 -35
23z"/>
<path d="M4532 8228 c5 -15 28 -23 28 -10 0 5 -7 13 -16 16 -10 4 -14 1 -12
-6z"/>
<path d="M4510 8141 c0 -4 22 -55 49 -113 27 -57 52 -115 56 -129 9 -35 65
-147 65 -129 0 31 -30 109 -94 243 -59 125 -76 153 -76 128z"/>
<path d="M4630 8059 c0 -3 17 -44 38 -90 21 -46 44 -95 50 -109 10 -25 11 -25
11 -2 1 12 -17 57 -39 100 -40 79 -60 112 -60 101z"/>
<path d="M4730 7741 c0 -17 5 -31 10 -31 6 0 10 11 10 24 0 14 -4 28 -10 31
-6 4 -10 -7 -10 -24z"/>
<path d="M4400 7841 c0 -8 15 -60 96 -328 16 -54 30 -83 40 -83 22 0 17 29
-16 98 -16 35 -48 122 -71 193 -36 116 -49 147 -49 120z"/>
<path d="M3405 7840 c3 -5 8 -10 11 -10 2 0 4 5 4 10 0 6 -5 10 -11 10 -5 0
-7 -4 -4 -10z"/>
<path d="M3518 4542 c-36 -22 -36 -42 0 -42 15 0 38 -7 50 -16 39 -27 58 9 26
54 -18 26 -39 28 -76 4z"/>
<path d="M3020 4534 c0 -24 19 -54 34 -54 8 0 19 6 25 14 10 12 8 19 -8 35
-25 25 -51 27 -51 5z"/>
<path d="M3156 4543 c-11 -11 -6 -50 8 -62 10 -8 16 -8 24 1 16 21 -14 79 -32
61z"/>
<path d="M2876 4508 c-2 -7 -9 -32 -15 -55 -18 -66 -63 -56 -77 16 -9 45 -38
38 -42 -10 -3 -30 2 -41 28 -63 41 -34 67 -33 88 4 12 20 26 30 47 32 25 3 31
8 33 33 3 19 -2 33 -14 42 -23 16 -44 17 -48 1z"/>
<path d="M3498 4078 c-49 -22 -61 -45 -35 -67 11 -8 18 -6 32 9 10 11 30 20
45 20 32 0 55 23 46 45 -7 20 -32 18 -88 -7z"/>
<path d="M3792 4059 c-19 -30 3 -53 24 -25 8 11 14 26 14 33 0 20 -24 15 -38
-8z"/>
<path d="M3660 4050 c-9 -16 -8 -22 5 -26 21 -8 39 10 32 30 -9 22 -24 20 -37
-4z"/>
<path d="M3250 4015 c-13 -16 -6 -35 15 -35 13 0 35 29 35 44 0 12 -38 5 -50
-9z"/>
<path d="M2670 4011 c0 -23 124 -261 146 -282 35 -32 31 -20 -51 149 -38 78
-75 142 -82 142 -7 0 -13 -4 -13 -9z"/>
<path d="M3165 3999 c-4 -11 -4 -24 0 -27 9 -9 36 28 29 39 -9 15 -22 10 -29
-12z"/>
<path d="M3367 4013 c-4 -3 -7 -15 -7 -25 0 -26 24 -17 28 10 3 21 -8 29 -21
15z"/>
<path d="M2827 3884 c-10 -10 20 -94 49 -132 32 -44 53 -62 71 -62 23 0 14 25
-24 60 -20 19 -47 58 -60 87 -26 56 -26 56 -36 47z"/>
<path d="M2960 3826 c0 -18 58 -95 87 -113 19 -13 23 -12 46 12 21 24 27 25
47 15 31 -17 37 -4 15 36 -34 63 -64 68 -65 9 0 -26 -18 -45 -37 -38 -7 3 -27
25 -44 49 -30 45 -49 56 -49 30z"/>
<path d="M3270 3782 c0 -29 29 -62 56 -62 34 0 30 20 -10 53 -41 32 -46 33
-46 9z"/>
<path d="M3020 3607 c0 -8 7 -21 16 -28 14 -11 15 -10 12 11 -3 26 -28 41 -28
17z"/>
<path d="M4372 4240 c0 -14 2 -19 5 -12 2 6 2 18 0 25 -3 6 -5 1 -5 -13z"/>
<path d="M4362 4180 c0 -19 2 -27 5 -17 2 9 2 25 0 35 -3 9 -5 1 -5 -18z"/>
<path d="M2372 11364 c1 -9 9 -19 16 -22 9 -3 13 2 10 14 -1 9 -9 19 -16 22
-9 3 -13 -2 -10 -14z"/>
<path d="M1720 11314 c0 -23 41 -114 51 -114 14 0 11 15 -13 75 -23 54 -38 70
-38 39z"/>
<path d="M2290 11306 c0 -4 23 -57 51 -119 28 -61 56 -123 61 -137 6 -14 12
-20 15 -14 5 15 -51 166 -82 220 -23 39 -45 64 -45 50z"/>
<path d="M2386 10960 c31 -63 59 -109 61 -103 5 14 -66 153 -98 193 -11 14 6
-27 37 -90z"/>
<path d="M2020 10771 c0 -11 35 -21 73 -21 29 0 36 14 11 24 -24 9 -84 7 -84
-3z"/>
<path d="M1887 10734 c-12 -20 35 -174 54 -174 13 0 12 7 -13 80 -34 103 -34
104 -41 94z"/>
<path d="M2700 10635 c-7 -9 -11 -18 -8 -21 7 -7 58 17 58 28 0 14 -37 9 -50
-7z"/>
<path d="M2336 10530 c4 -14 26 -59 49 -100 23 -41 64 -123 90 -183 26 -59 50
-106 52 -104 14 14 -134 333 -182 392 -16 20 -16 19 -9 -5z"/>
<path d="M2130 10504 c24 -63 111 -187 110 -158 -1 17 -97 178 -109 182 -8 3
-8 -3 -1 -24z"/>
<path d="M2760 10399 c0 -16 81 -219 87 -219 11 0 -6 67 -37 148 -17 45 -36
82 -41 82 -5 0 -9 -5 -9 -11z"/>
<path d="M2750 10201 c0 -13 84 -288 100 -326 7 -17 9 -15 9 11 1 17 -17 87
-39 155 -39 119 -69 189 -70 160z"/>
<path d="M2006 10171 c-10 -15 135 -394 155 -407 15 -9 10 8 -31 109 -22 54
-54 143 -71 197 -30 97 -42 120 -53 101z"/>
<path d="M2711 10098 c-1 -4 21 -76 48 -160 46 -141 79 -281 96 -401 4 -26 12
-50 18 -54 13 -8 2 93 -23 208 -23 108 -136 437 -139 407z"/>
<path d="M2262 10068 c5 -15 48 -18 48 -3 0 6 -11 11 -26 13 -18 3 -25 0 -22
-10z"/>
<path d="M1960 9890 c0 -8 70 -50 85 -50 16 0 1 23 -27 40 -36 22 -58 26 -58
10z"/>
<path d="M2215 9660 c20 -35 69 -100 72 -96 6 6 -41 79 -63 96 -16 13 -17 13
-9 0z"/>
<path d="M2600 9623 c0 -6 22 -67 48 -135 26 -68 61 -165 77 -215 16 -51 30
-91 33 -89 7 8 -50 203 -88 297 -42 106 -69 161 -70 142z"/>
<path d="M2136 9163 c-9 -29 20 -129 64 -218 44 -89 109 -196 110 -179 0 6
-29 71 -64 145 -35 74 -72 164 -81 199 -19 75 -21 78 -29 53z"/>
<path d="M3780 6575 c0 -8 7 -15 15 -15 8 0 15 7 15 15 0 8 -7 15 -15 15 -8 0
-15 -7 -15 -15z"/>
<path d="M4070 5854 c-15 -38 -12 -56 8 -52 12 2 18 14 20 41 4 43 -14 50 -28
11z"/>
<path d="M3810 2115 c0 -8 17 -19 43 -25 45 -12 100 -58 123 -102 16 -31 19
-70 9 -115 -9 -38 8 -45 25 -13 23 42 15 92 -22 150 -46 71 -74 96 -123 109
-52 14 -55 14 -55 -4z"/>
<path d="M2660 1405 c-23 -19 -54 -38 -69 -41 -44 -9 -51 -13 -51 -24 0 -5 15
-10 34 -10 25 0 48 11 85 40 28 22 51 47 51 55 0 21 -3 20 -50 -20z"/>
</g>
</svg>
